<svg xmlns="http://www.w3.org/2000/svg" xmlns:xlink="http://www.w3.org/1999/xlink" width="1920" zoomAndPan="magnify" viewBox="0 0 1440 809.999993" height="1080" preserveAspectRatio="xMidYMid meet" version="1.0"><defs><filter x="0%" y="0%" width="100%" height="100%" id="62d2a99d8b"><feColorMatrix values="0 0 0 0 1 0 0 0 0 1 0 0 0 0 1 0 0 0 1 0" color-interpolation-filters="sRGB"/></filter><mask id="39e0be502c"><g filter="url(#62d2a99d8b)"><rect x="-144" width="1728" fill="#000000" y="-80.999999" height="971.999992" fill-opacity="0.36"/></g></mask><mask id="c3d5d095a0"><g filter="url(#62d2a99d8b)"><rect x="-316.8" width="2073.6" fill="#000000" y="-178.199998" height="1166.39999" fill-opacity="0.444"/></g></mask><clipPath id="cdc1bb450e"><path d="M 0.480469 0 L 26 0 L 26 26 L 0.480469 26 Z M 0.480469 0 " clip-rule="nonzero"/></clipPath><clipPath id="3afa18a3a8"><rect x="0" width="27" y="0" height="27"/></clipPath><mask id="d543c61f10"><g filter="url(#62d2a99d8b)"><rect x="-316.8" width="2073.6" fill="#000000" y="-178.199998" height="1166.39999" fill-opacity="0.444"/></g></mask><clipPath id="04ca5f9b67"><rect x="0" width="28" y="0" height="28"/></clipPath><mask id="670a55d865"><g filter="url(#62d2a99d8b)"><rect x="-316.8" width="2073.6" fill="#000000" y="-178.199998" height="1166.39999" fill-opacity="0.444"/></g></mask><clipPath id="4c0d8d935f"><rect x="0" width="28" y="0" height="28"/></clipPath><mask id="ea8e9dea6b"><g filter="url(#62d2a99d8b)"><rect x="-316.8" width="2073.6" fill="#000000" y="-178.199998" height="1166.39999" fill-opacity="0.444"/></g></mask><clipPath id="342c49d317"><path d="M 0.238281 0.480469 L 26 0.480469 L 26 26 L 0.238281 26 Z M 0.238281 0.480469 " clip-rule="nonzero"/></clipPath><clipPath id="f6b650ac3e"><rect x="0" width="27" y="0" height="27"/></clipPath><mask id="63a2603e56"><g filter="url(#62d2a99d8b)"><rect x="-316.8" width="2073.6" fill="#000000" y="-178.199998" height="1166.39999" fill-opacity="0.444"/></g></mask><clipPath id="5d8d0030c3"><path d="M 0 1 L 17.761719 1 L 17.761719 26 L 0 26 Z M 0 1 " clip-rule="nonzero"/></clipPath><clipPath id="a012ec5c3b"><rect x="0" width="18" y="0" height="27"/></clipPath><mask id="c5439c26f9"><g filter="url(#62d2a99d8b)"><rect x="-316.8" width="2073.6" fill="#000000" y="-178.199998" height="1166.39999" fill-opacity="0.444"/></g></mask><clipPath id="11126c9161"><path d="M 1 0.558594 L 27 0.558594 L 27 26 L 1 26 Z M 1 0.558594 " clip-rule="nonzero"/></clipPath><clipPath id="a5da4e3ebe"><rect x="0" width="28" y="0" height="27"/></clipPath><mask id="05d4d4e283"><g filter="url(#62d2a99d8b)"><rect x="-316.8" width="2073.6" fill="#000000" y="-178.199998" height="1166.39999" fill-opacity="0.444"/></g></mask><clipPath id="4c2340d19f"><path d="M 1 1 L 27 1 L 27 26.519531 L 1 26.519531 Z M 1 1 " clip-rule="nonzero"/></clipPath><clipPath id="1c29aa8619"><rect x="0" width="28" y="0" height="27"/></clipPath><mask id="6ab4ccfe7b"><g filter="url(#62d2a99d8b)"><rect x="-316.8" width="2073.6" fill="#000000" y="-178.199998" height="1166.39999" fill-opacity="0.444"/></g></mask><clipPath id="6a0bfd1ae1"><path d="M 0.121094 1 L 26 1 L 26 26.519531 L 0.121094 26.519531 Z M 0.121094 1 " clip-rule="nonzero"/></clipPath><clipPath id="681dd45f64"><rect x="0" width="27" y="0" height="27"/></clipPath><mask id="5c605b0fed"><g filter="url(#62d2a99d8b)"><rect x="-316.8" width="2073.6" fill="#000000" y="-178.199998" height="1166.39999" fill-opacity="0.444"/></g></mask><clipPath id="e915f9b0c0"><rect x="0" width="28" y="0" height="27"/></clipPath><clipPath id="c940dabbbf"><path d="M 268 168 L 294.054688 168 L 294.054688 195 L 268 195 Z M 268 168 " clip-rule="nonzero"/></clipPath><mask id="40f24b67a4"><g filter="url(#62d2a99d8b)"><rect x="-316.8" width="2073.6" fill="#000000" y="-178.199998" height="1166.39999" fill-opacity="0.444"/></g></mask><clipPath id="df77e95ae0"><rect x="0" width="27" y="0" height="27"/></clipPath><clipPath id="f927831282"><path d="M 0 209.855469 L 23 209.855469 L 23 237 L 0 237 Z M 0 209.855469 " clip-rule="nonzero"/></clipPath><mask id="fafb30acfd"><g filter="url(#62d2a99d8b)"><rect x="-316.8" width="2073.6" fill="#000000" y="-178.199998" height="1166.39999" fill-opacity="0.444"/></g></mask><clipPath id="18f4669db3"><path d="M 0 1 L 22 1 L 22 27 L 0 27 Z M 0 1 " clip-rule="nonzero"/></clipPath><clipPath id="2439f0cdde"><rect x="0" width="23" y="0" height="28"/></clipPath><mask id="2bd9cf1ce7"><g filter="url(#62d2a99d8b)"><rect x="-316.8" width="2073.6" fill="#000000" y="-178.199998" height="1166.39999" fill-opacity="0.444"/></g></mask><clipPath id="94f5a3ce79"><rect x="0" width="28" y="0" height="28"/></clipPath><mask id="d2ebe9994f"><g filter="url(#62d2a99d8b)"><rect x="-316.8" width="2073.6" fill="#000000" y="-178.199998" height="1166.39999" fill-opacity="0.444"/></g></mask><clipPath id="5de8cd4f42"><rect x="0" width="27" y="0" height="28"/></clipPath><mask id="36d4cba98b"><g filter="url(#62d2a99d8b)"><rect x="-316.8" width="2073.6" fill="#000000" y="-178.199998" height="1166.39999" fill-opacity="0.444"/></g></mask><clipPath id="d6fc0bec1b"><path d="M 1 0.480469 L 26.839844 0.480469 L 26.839844 26 L 1 26 Z M 1 0.480469 " clip-rule="nonzero"/></clipPath><clipPath id="6b76e45ede"><rect x="0" width="27" y="0" height="27"/></clipPath><mask id="b5d8a9c3b5"><g filter="url(#62d2a99d8b)"><rect x="-316.8" width="2073.6" fill="#000000" y="-178.199998" height="1166.39999" fill-opacity="0.444"/></g></mask><clipPath id="7f22384531"><path d="M 0 0.238281 L 13.441406 0.238281 L 13.441406 26 L 0 26 Z M 0 0.238281 " clip-rule="nonzero"/></clipPath><clipPath id="e95ef73978"><rect x="0" width="14" y="0" height="27"/></clipPath><mask id="24b1de64c8"><g filter="url(#62d2a99d8b)"><rect x="-316.8" width="2073.6" fill="#000000" y="-178.199998" height="1166.39999" fill-opacity="0.444"/></g></mask><clipPath id="9339807b98"><path d="M 0.0390625 0.558594 L 26 0.558594 L 26 26 L 0.0390625 26 Z M 0.0390625 0.558594 " clip-rule="nonzero"/></clipPath><clipPath id="dfc1986ab4"><rect x="0" width="27" y="0" height="27"/></clipPath><mask id="56be21cefa"><g filter="url(#62d2a99d8b)"><rect x="-316.8" width="2073.6" fill="#000000" y="-178.199998" height="1166.39999" fill-opacity="0.444"/></g></mask><clipPath id="8fd3e41066"><path d="M 1 1 L 27 1 L 27 26.28125 L 1 26.28125 Z M 1 1 " clip-rule="nonzero"/></clipPath><clipPath id="102ea4b1df"><rect x="0" width="28" y="0" height="27"/></clipPath><mask id="536516b65b"><g filter="url(#62d2a99d8b)"><rect x="-316.8" width="2073.6" fill="#000000" y="-178.199998" height="1166.39999" fill-opacity="0.444"/></g></mask><clipPath id="fc06a31466"><path d="M 1 1 L 26.71875 1 L 26.71875 26.28125 L 1 26.28125 Z M 1 1 " clip-rule="nonzero"/></clipPath><clipPath id="b4c1872cd6"><rect x="0" width="27" y="0" height="27"/></clipPath><mask id="91c32efd16"><g filter="url(#62d2a99d8b)"><rect x="-316.8" width="2073.6" fill="#000000" y="-178.199998" height="1166.39999" fill-opacity="0.444"/></g></mask><clipPath id="674ffb8adf"><path d="M 0 0.558594 L 24 0.558594 L 24 26 L 0 26 Z M 0 0.558594 " clip-rule="nonzero"/></clipPath><clipPath id="80e01a1c64"><rect x="0" width="25" y="0" height="27"/></clipPath><clipPath id="2ad0d14da0"><path d="M 264 378 L 289.707031 378 L 289.707031 404.855469 L 264 404.855469 Z M 264 378 " clip-rule="nonzero"/></clipPath><mask id="bd9344be2f"><g filter="url(#62d2a99d8b)"><rect x="-316.8" width="2073.6" fill="#000000" y="-178.199998" height="1166.39999" fill-opacity="0.444"/></g></mask><clipPath id="12040a2446"><path d="M 0 1 L 25.707031 1 L 25.707031 26.855469 L 0 26.855469 Z M 0 1 " clip-rule="nonzero"/></clipPath><clipPath id="7ef7748bc8"><rect x="0" width="26" y="0" height="27"/></clipPath><clipPath id="65b7800ba3"><path d="M 0 413.308594 L 19 413.308594 L 19 440 L 0 440 Z M 0 413.308594 " clip-rule="nonzero"/></clipPath><mask id="a797783d35"><g filter="url(#62d2a99d8b)"><rect x="-316.8" width="2073.6" fill="#000000" y="-178.199998" height="1166.39999" fill-opacity="0.444"/></g></mask><clipPath id="c6d721543b"><path d="M 0 0.308594 L 18 0.308594 L 18 26 L 0 26 Z M 0 0.308594 " clip-rule="nonzero"/></clipPath><clipPath id="dd4961896a"><rect x="0" width="19" y="0" height="27"/></clipPath><mask id="c40faeddb4"><g filter="url(#62d2a99d8b)"><rect x="-316.8" width="2073.6" fill="#000000" y="-178.199998" height="1166.39999" fill-opacity="0.444"/></g></mask><clipPath id="7feaadd62c"><rect x="0" width="28" y="0" height="28"/></clipPath><mask id="06af04d9cf"><g filter="url(#62d2a99d8b)"><rect x="-316.8" width="2073.6" fill="#000000" y="-178.199998" height="1166.39999" fill-opacity="0.444"/></g></mask><clipPath id="f2d2b4808d"><rect x="0" width="28" y="0" height="28"/></clipPath><clipPath id="a53e2de663"><path d="M 94 413.308594 L 121 413.308594 L 121 440 L 94 440 Z M 94 413.308594 " clip-rule="nonzero"/></clipPath><mask id="4a9c9481c0"><g filter="url(#62d2a99d8b)"><rect x="-316.8" width="2073.6" fill="#000000" y="-178.199998" height="1166.39999" fill-opacity="0.444"/></g></mask><clipPath id="cbc6c17631"><path d="M 0.320312 1 L 26 1 L 26 26.679688 L 0.320312 26.679688 Z M 0.320312 1 " clip-rule="nonzero"/></clipPath><clipPath id="a983f94360"><rect x="0" width="27" y="0" height="27"/></clipPath><mask id="df629f2c17"><g filter="url(#62d2a99d8b)"><rect x="-316.8" width="2073.6" fill="#000000" y="-178.199998" height="1166.39999" fill-opacity="0.444"/></g></mask><clipPath id="1aa4dc7304"><path d="M 0 1 L 9.839844 1 L 9.839844 26.679688 L 0 26.679688 Z M 0 1 " clip-rule="nonzero"/></clipPath><clipPath id="d625f7dc17"><rect x="0" width="10" y="0" height="27"/></clipPath><mask id="a33f6bf0a0"><g filter="url(#62d2a99d8b)"><rect x="-316.8" width="2073.6" fill="#000000" y="-178.199998" height="1166.39999" fill-opacity="0.444"/></g></mask><clipPath id="f35e1f4f51"><rect x="0" width="28" y="0" height="27"/></clipPath><mask id="f163b40932"><g filter="url(#62d2a99d8b)"><rect x="-316.8" width="2073.6" fill="#000000" y="-178.199998" height="1166.39999" fill-opacity="0.444"/></g></mask><clipPath id="9157965b33"><path d="M 1 1 L 27 1 L 27 26.800781 L 1 26.800781 Z M 1 1 " clip-rule="nonzero"/></clipPath><clipPath id="53f35995cf"><rect x="0" width="28" y="0" height="27"/></clipPath><mask id="ba534bdb20"><g filter="url(#62d2a99d8b)"><rect x="-316.8" width="2073.6" fill="#000000" y="-178.199998" height="1166.39999" fill-opacity="0.444"/></g></mask><clipPath id="9aecc85fc0"><path d="M 1 1 L 26.878906 1 L 26.878906 26.800781 L 1 26.800781 Z M 1 1 " clip-rule="nonzero"/></clipPath><clipPath id="ee862dd21a"><rect x="0" width="27" y="0" height="27"/></clipPath><mask id="849c493473"><g filter="url(#62d2a99d8b)"><rect x="-316.8" width="2073.6" fill="#000000" y="-178.199998" height="1166.39999" fill-opacity="0.444"/></g></mask><clipPath id="0d60fc0f76"><path d="M 0 1 L 20 1 L 20 27 L 0 27 Z M 0 1 " clip-rule="nonzero"/></clipPath><clipPath id="d1af1134d9"><rect x="0" width="21" y="0" height="27"/></clipPath><clipPath id="36c7d4ee04"><path d="M 260 582 L 285.984375 582 L 285.984375 608.308594 L 260 608.308594 Z M 260 582 " clip-rule="nonzero"/></clipPath><mask id="8095b621b5"><g filter="url(#62d2a99d8b)"><rect x="-316.8" width="2073.6" fill="#000000" y="-178.199998" height="1166.39999" fill-opacity="0.444"/></g></mask><clipPath id="aa84cfa559"><path d="M 0.398438 1 L 25.984375 1 L 25.984375 26.308594 L 0.398438 26.308594 Z M 0.398438 1 " clip-rule="nonzero"/></clipPath><clipPath id="350926404d"><rect x="0" width="26" y="0" height="27"/></clipPath><clipPath id="817fff525b"><path d="M 0 631.585938 L 23 631.585938 L 23 659 L 0 659 Z M 0 631.585938 " clip-rule="nonzero"/></clipPath><mask id="230fd153c1"><g filter="url(#62d2a99d8b)"><rect x="-316.8" width="2073.6" fill="#000000" y="-178.199998" height="1166.39999" fill-opacity="0.444"/></g></mask><clipPath id="2b7f55a0aa"><path d="M 0 1 L 22.800781 1 L 22.800781 27 L 0 27 Z M 0 1 " clip-rule="nonzero"/></clipPath><clipPath id="514ece7315"><rect x="0" width="23" y="0" height="28"/></clipPath><mask id="994892eefa"><g filter="url(#62d2a99d8b)"><rect x="-316.8" width="2073.6" fill="#000000" y="-178.199998" height="1166.39999" fill-opacity="0.444"/></g></mask><clipPath id="5e5a63af64"><rect x="0" width="28" y="0" height="28"/></clipPath><mask id="5511d2a848"><g filter="url(#62d2a99d8b)"><rect x="-316.8" width="2073.6" fill="#000000" y="-178.199998" height="1166.39999" fill-opacity="0.444"/></g></mask><clipPath id="44fcc0fae0"><path d="M 1 1 L 27 1 L 27 13 L 1 13 Z M 1 1 " clip-rule="nonzero"/></clipPath><clipPath id="afd0fda0c1"><rect x="0" width="28" y="0" height="13"/></clipPath><mask id="597d1814ca"><g filter="url(#62d2a99d8b)"><rect x="-316.8" width="2073.6" fill="#000000" y="-178.199998" height="1166.39999" fill-opacity="0.444"/></g></mask><clipPath id="888bc2736f"><path d="M 1 0.160156 L 26.558594 0.160156 L 26.558594 26 L 1 26 Z M 1 0.160156 " clip-rule="nonzero"/></clipPath><clipPath id="9781a7db63"><rect x="0" width="27" y="0" height="27"/></clipPath><mask id="8d733619d8"><g filter="url(#62d2a99d8b)"><rect x="-316.8" width="2073.6" fill="#000000" y="-178.199998" height="1166.39999" fill-opacity="0.444"/></g></mask><clipPath id="7b4a9118b4"><path d="M 0 1 L 14 1 L 14 26.839844 L 0 26.839844 Z M 0 1 " clip-rule="nonzero"/></clipPath><clipPath id="cc0e6264fd"><rect x="0" width="15" y="0" height="27"/></clipPath><mask id="43a55b803c"><g filter="url(#62d2a99d8b)"><rect x="-316.8" width="2073.6" fill="#000000" y="-178.199998" height="1166.39999" fill-opacity="0.444"/></g></mask><clipPath id="63a837633e"><path d="M 1 0.238281 L 27 0.238281 L 27 26 L 1 26 Z M 1 0.238281 " clip-rule="nonzero"/></clipPath><clipPath id="91295600f4"><rect x="0" width="28" y="0" height="27"/></clipPath><mask id="578ab49d51"><g filter="url(#62d2a99d8b)"><rect x="-316.8" width="2073.6" fill="#000000" y="-178.199998" height="1166.39999" fill-opacity="0.444"/></g></mask><clipPath id="4b8933b8e6"><path d="M 1 0.0390625 L 26 0.0390625 L 26 25.960938 L 1 25.960938 Z M 1 0.0390625 " clip-rule="nonzero"/></clipPath><clipPath id="45c133ae0a"><rect x="0" width="27" y="0" height="26"/></clipPath><mask id="5ee2bf4ac6"><g filter="url(#62d2a99d8b)"><rect x="-316.8" width="2073.6" fill="#000000" y="-178.199998" height="1166.39999" fill-opacity="0.444"/></g></mask><clipPath id="2a0582230a"><path d="M 0.28125 0.0390625 L 26 0.0390625 L 26 13 L 0.28125 13 Z M 0.28125 0.0390625 " clip-rule="nonzero"/></clipPath><clipPath id="09f03a7618"><rect x="0" width="27" y="0" height="13"/></clipPath><mask id="1290442a74"><g filter="url(#62d2a99d8b)"><rect x="-316.8" width="2073.6" fill="#000000" y="-178.199998" height="1166.39999" fill-opacity="0.444"/></g></mask><clipPath id="827f099ae9"><path d="M 0 0.238281 L 24 0.238281 L 24 12 L 0 12 Z M 0 0.238281 " clip-rule="nonzero"/></clipPath><clipPath id="beec44639c"><rect x="0" width="25" y="0" height="12"/></clipPath><clipPath id="1500550638"><path d="M 264 800 L 290.335938 800 L 290.335938 810 L 264 810 Z M 264 800 " clip-rule="nonzero"/></clipPath><mask id="0e086d2804"><g filter="url(#62d2a99d8b)"><rect x="-316.8" width="2073.6" fill="#000000" y="-178.199998" height="1166.39999" fill-opacity="0.444"/></g></mask><clipPath id="953ae736e5"><path d="M 1 1 L 26.335938 1 L 26.335938 10 L 1 10 Z M 1 1 " clip-rule="nonzero"/></clipPath><clipPath id="f6778207a2"><rect x="0" width="27" y="0" height="10"/></clipPath><clipPath id="567401cfc2"><rect x="0" width="295" y="0" height="810"/></clipPath><clipPath id="70b370e22b"><path d="M 294.042969 0 L 588.042969 0 L 588.042969 316.5 L 294.042969 316.5 Z M 294.042969 0 " clip-rule="nonzero"/></clipPath><clipPath id="0b751fec48"><path d="M 588.085938 0 L 882.085938 0 L 882.085938 316.5 L 588.085938 316.5 Z M 588.085938 0 " clip-rule="nonzero"/></clipPath><clipPath id="c2245c1a42"><path d="M 882.128906 0 L 1176.128906 0 L 1176.128906 316.5 L 882.128906 316.5 Z M 882.128906 0 " clip-rule="nonzero"/></clipPath><clipPath id="8b1e88fab4"><path d="M 1176.128906 0 L 1440 0 L 1440 316.5 L 1176.128906 316.5 Z M 1176.128906 0 " clip-rule="nonzero"/></clipPath><clipPath id="b89884e89c"><path d="M 294.042969 316.191406 L 588.042969 316.191406 L 588.042969 632.691406 L 294.042969 632.691406 Z M 294.042969 316.191406 " clip-rule="nonzero"/></clipPath><clipPath id="5b9c5119c6"><path d="M 588.085938 316.191406 L 882.085938 316.191406 L 882.085938 632.691406 L 588.085938 632.691406 Z M 588.085938 316.191406 " clip-rule="nonzero"/></clipPath><clipPath id="0143f2a8e3"><path d="M 882.128906 316.191406 L 1176.128906 316.191406 L 1176.128906 632.691406 L 882.128906 632.691406 Z M 882.128906 316.191406 " clip-rule="nonzero"/></clipPath><clipPath id="de2371a32f"><path d="M 1176.128906 316.191406 L 1440 316.191406 L 1440 632.691406 L 1176.128906 632.691406 Z M 1176.128906 316.191406 " clip-rule="nonzero"/></clipPath><clipPath id="f533c905e0"><path d="M 294.042969 632.382812 L 588.042969 632.382812 L 588.042969 810 L 294.042969 810 Z M 294.042969 632.382812 " clip-rule="nonzero"/></clipPath><clipPath id="483ba8715f"><path d="M 588.085938 632.382812 L 882.085938 632.382812 L 882.085938 810 L 588.085938 810 Z M 588.085938 632.382812 " clip-rule="nonzero"/></clipPath><clipPath id="41e4cf68fd"><path d="M 882.128906 632.382812 L 1176.128906 632.382812 L 1176.128906 810 L 882.128906 810 Z M 882.128906 632.382812 " clip-rule="nonzero"/></clipPath><clipPath id="826384b858"><path d="M 1176.128906 632.382812 L 1440 632.382812 L 1440 810 L 1176.128906 810 Z M 1176.128906 632.382812 " clip-rule="nonzero"/></clipPath></defs><rect x="-144" width="1728" fill="#ffffff" y="-80.999999" height="971.999992" fill-opacity="1"/><rect x="-144" width="1728" fill="#f7f0e8" y="-80.999999" height="971.999992" fill-opacity="1"/><g mask="url(#39e0be502c)"><g transform="matrix(1, 0, 0, 1, 0, 0.000000000000039746)"><g clip-path="url(#567401cfc2)"><path fill="#ff914d" d="M 59.652344 52.96875 C 59.332031 53.28125 57.664062 61.523438 57.222656 61.589844 C 56.78125 61.660156 52.722656 54.292969 52.324219 54.089844 C 51.929688 53.882812 43.574219 54.84375 43.375 54.441406 C 43.171875 54.042969 48.925781 47.910156 48.996094 47.46875 C 49.070312 47.023438 45.574219 39.378906 45.890625 39.0625 C 46.210938 38.746094 53.820312 42.324219 54.265625 42.253906 C 54.707031 42.1875 60.902344 36.5 61.296875 36.703125 C 61.695312 36.910156 60.648438 45.253906 60.847656 45.652344 C 61.050781 46.054688 68.375 50.1875 68.300781 50.628906 C 68.230469 51.070312 59.96875 52.652344 59.652344 52.96875 Z M 59.652344 52.96875 " fill-opacity="1" fill-rule="nonzero"/><path fill="#ff914d" d="M 54.9375 137.300781 C 54.621094 137.613281 52.953125 145.855469 52.507812 145.921875 C 52.066406 145.992188 48.011719 138.625 47.613281 138.417969 C 47.214844 138.214844 38.859375 139.175781 38.660156 138.773438 C 38.457031 138.375 44.210938 132.242188 44.28125 131.800781 C 44.355469 131.355469 40.859375 123.710938 41.179688 123.394531 C 41.496094 123.078125 49.109375 126.652344 49.550781 126.585938 C 49.992188 126.519531 56.1875 120.832031 56.585938 121.035156 C 56.984375 121.242188 55.933594 129.585938 56.136719 129.984375 C 56.335938 130.386719 63.660156 134.519531 63.585938 134.960938 C 63.515625 135.402344 55.257812 136.984375 54.9375 137.300781 Z M 54.9375 137.300781 " fill-opacity="1" fill-rule="nonzero"/><path fill="#ff914d" d="M 167 51.285156 C 166.683594 51.601562 165.015625 59.839844 164.570312 59.910156 C 164.128906 59.976562 160.074219 52.609375 159.675781 52.40625 C 159.277344 52.199219 150.925781 53.160156 150.722656 52.761719 C 150.519531 52.359375 156.273438 46.226562 156.347656 45.785156 C 156.417969 45.34375 152.921875 37.695312 153.242188 37.378906 C 153.558594 37.0625 161.171875 40.640625 161.613281 40.570312 C 162.054688 40.503906 168.25 34.816406 168.648438 35.023438 C 169.046875 35.226562 167.996094 43.570312 168.199219 43.972656 C 168.398438 44.371094 175.722656 48.503906 175.652344 48.945312 C 175.578125 49.386719 167.320312 50.96875 167 51.285156 Z M 167 51.285156 " fill-opacity="1" fill-rule="nonzero"/><path fill="#ff914d" d="M 262.203125 133.515625 C 261.882812 133.832031 260.214844 142.074219 259.773438 142.140625 C 259.332031 142.207031 255.273438 134.84375 254.875 134.636719 C 254.480469 134.429688 246.125 135.390625 245.925781 134.992188 C 245.722656 134.589844 251.476562 128.457031 251.546875 128.015625 C 251.621094 127.574219 248.125 119.925781 248.441406 119.609375 C 248.761719 119.296875 256.371094 122.871094 256.816406 122.804688 C 257.257812 122.734375 263.453125 117.046875 263.847656 117.253906 C 264.246094 117.460938 263.199219 125.800781 263.398438 126.203125 C 263.601562 126.601562 270.925781 130.734375 270.851562 131.175781 C 270.78125 131.621094 262.519531 133.199219 262.203125 133.515625 Z M 262.203125 133.515625 " fill-opacity="1" fill-rule="nonzero"/><path fill="#ff914d" d="M 158.503906 133.921875 C 158.183594 134.238281 156.515625 142.480469 156.074219 142.546875 C 155.628906 142.617188 151.574219 135.25 151.175781 135.042969 C 150.777344 134.839844 142.425781 135.800781 142.222656 135.398438 C 142.023438 135 147.773438 128.867188 147.847656 128.421875 C 147.917969 127.980469 144.425781 120.332031 144.742188 120.019531 C 145.0625 119.703125 152.671875 123.277344 153.113281 123.210938 C 153.558594 123.144531 159.75 117.457031 160.148438 117.660156 C 160.546875 117.867188 159.5 126.210938 159.699219 126.609375 C 159.902344 127.011719 167.222656 131.144531 167.152344 131.585938 C 167.078125 132.027344 158.820312 133.609375 158.503906 133.921875 Z M 158.503906 133.921875 " fill-opacity="1" fill-rule="nonzero"/><path fill="#ff914d" d="M 275.972656 54.929688 C 275.65625 55.246094 273.988281 63.488281 273.546875 63.554688 C 273.101562 63.621094 269.046875 56.257812 268.648438 56.050781 C 268.25 55.847656 259.898438 56.804688 259.695312 56.40625 C 259.496094 56.007812 265.246094 49.871094 265.320312 49.429688 C 265.390625 48.988281 261.894531 41.339844 262.214844 41.027344 C 262.535156 40.710938 270.144531 44.285156 270.585938 44.21875 C 271.03125 44.148438 277.222656 38.464844 277.621094 38.667969 C 278.019531 38.875 276.96875 47.214844 277.171875 47.617188 C 277.375 48.015625 284.695312 52.148438 284.625 52.59375 C 284.550781 53.035156 276.292969 54.617188 275.972656 54.929688 Z M 275.972656 54.929688 " fill-opacity="1" fill-rule="nonzero"/><g mask="url(#c3d5d095a0)"><g transform="matrix(1, 0, 0, 1, -0.000000000000000056, 0.000000000000039746)"><g clip-path="url(#3afa18a3a8)"><g clip-path="url(#cdc1bb450e)"><path fill="#ff914d" d="M 17.082031 16.792969 C 16.761719 17.109375 15.09375 25.351562 14.652344 25.417969 C 14.207031 25.488281 10.152344 18.121094 9.753906 17.914062 C 9.355469 17.710938 1.003906 18.671875 0.800781 18.269531 C 0.601562 17.871094 6.351562 11.738281 6.425781 11.292969 C 6.496094 10.851562 3.003906 3.203125 3.320312 2.890625 C 3.640625 2.574219 11.25 6.148438 11.691406 6.082031 C 12.136719 6.015625 18.328125 0.328125 18.726562 0.53125 C 19.125 0.738281 18.078125 9.082031 18.277344 9.480469 C 18.480469 9.882812 25.800781 14.015625 25.730469 14.457031 C 25.65625 14.898438 17.398438 16.480469 17.082031 16.792969 Z M 17.082031 16.792969 " fill-opacity="1" fill-rule="nonzero"/></g></g></g></g><g mask="url(#d543c61f10)"><g transform="matrix(1, 0, 0, 1, 205, 1)"><g clip-path="url(#04ca5f9b67)"><path fill="#ff914d" d="M 17.503906 17.878906 C 17.1875 18.191406 15.519531 26.433594 15.078125 26.503906 C 14.632812 26.570312 10.578125 19.203125 10.179688 19 C 9.78125 18.792969 1.429688 19.753906 1.226562 19.351562 C 1.027344 18.953125 6.777344 12.820312 6.851562 12.378906 C 6.921875 11.9375 3.429688 4.289062 3.746094 3.972656 C 4.066406 3.65625 11.675781 7.234375 12.117188 7.164062 C 12.5625 7.097656 18.753906 1.410156 19.152344 1.617188 C 19.550781 1.820312 18.503906 10.164062 18.703125 10.5625 C 18.90625 10.964844 26.226562 15.097656 26.15625 15.539062 C 26.082031 15.980469 17.824219 17.5625 17.503906 17.878906 Z M 17.503906 17.878906 " fill-opacity="1" fill-rule="nonzero"/></g></g></g><g mask="url(#670a55d865)"><g transform="matrix(1, 0, 0, 1, 193, 165)"><g clip-path="url(#4c0d8d935f)"><path fill="#ff914d" d="M 17.75 17.933594 C 17.429688 18.25 15.761719 26.488281 15.320312 26.558594 C 14.875 26.625 10.820312 19.257812 10.421875 19.054688 C 10.023438 18.847656 1.671875 19.808594 1.46875 19.410156 C 1.269531 19.007812 7.019531 12.875 7.09375 12.433594 C 7.167969 11.992188 3.671875 4.34375 3.988281 4.027344 C 4.308594 3.714844 11.917969 7.289062 12.363281 7.21875 C 12.804688 7.152344 18.996094 1.464844 19.394531 1.671875 C 19.792969 1.875 18.746094 10.21875 18.945312 10.621094 C 19.148438 11.019531 26.472656 15.152344 26.398438 15.59375 C 26.324219 16.039062 18.066406 17.617188 17.75 17.933594 Z M 17.75 17.933594 " fill-opacity="1" fill-rule="nonzero"/></g></g></g><g mask="url(#ea8e9dea6b)"><g transform="matrix(1, 0, 0, 1, 102, 0.000000000000039746)"><g clip-path="url(#f6b650ac3e)"><g clip-path="url(#342c49d317)"><path fill="#ff914d" d="M 17.203125 17.257812 C 16.882812 17.574219 15.214844 25.8125 14.773438 25.882812 C 14.332031 25.949219 10.273438 18.582031 9.875 18.378906 C 9.476562 18.171875 1.125 19.132812 0.921875 18.734375 C 0.722656 18.332031 6.472656 12.199219 6.546875 11.757812 C 6.621094 11.316406 3.125 3.667969 3.441406 3.351562 C 3.761719 3.035156 11.371094 6.613281 11.816406 6.542969 C 12.257812 6.476562 18.449219 0.789062 18.847656 0.996094 C 19.246094 1.199219 18.199219 9.542969 18.398438 9.945312 C 18.601562 10.34375 25.925781 14.476562 25.851562 14.917969 C 25.777344 15.359375 17.519531 16.941406 17.203125 17.257812 Z M 17.203125 17.257812 " fill-opacity="1" fill-rule="nonzero"/></g></g></g></g><g mask="url(#63a2603e56)"><g transform="matrix(1, 0, 0, 1, 0, 72)"><g clip-path="url(#a012ec5c3b)"><g clip-path="url(#5d8d0030c3)"><path fill="#ff914d" d="M 9.019531 17.363281 C 8.703125 17.679688 7.035156 25.917969 6.589844 25.988281 C 6.148438 26.054688 2.09375 18.6875 1.695312 18.484375 C 1.296875 18.277344 -7.058594 19.238281 -7.257812 18.839844 C -7.460938 18.4375 -1.707031 12.304688 -1.636719 11.863281 C -1.5625 11.421875 -5.058594 3.773438 -4.738281 3.457031 C -4.421875 3.144531 3.191406 6.71875 3.632812 6.648438 C 4.074219 6.582031 10.269531 0.894531 10.667969 1.101562 C 11.066406 1.304688 10.015625 9.648438 10.21875 10.050781 C 10.417969 10.449219 17.742188 14.582031 17.667969 15.023438 C 17.597656 15.46875 9.339844 17.046875 9.019531 17.363281 Z M 9.019531 17.363281 " fill-opacity="1" fill-rule="nonzero"/></g></g></g></g><g mask="url(#c5439c26f9)"><g transform="matrix(1, 0, 0, 1, 87, 76)"><g clip-path="url(#a5da4e3ebe)"><g clip-path="url(#11126c9161)"><path fill="#ff914d" d="M 17.617188 17.007812 C 17.296875 17.324219 15.628906 25.566406 15.1875 25.632812 C 14.742188 25.703125 10.6875 18.335938 10.289062 18.128906 C 9.890625 17.925781 1.539062 18.886719 1.335938 18.484375 C 1.136719 18.085938 6.886719 11.949219 6.960938 11.507812 C 7.035156 11.066406 3.539062 3.417969 3.855469 3.105469 C 4.175781 2.789062 11.785156 6.363281 12.226562 6.296875 C 12.671875 6.230469 18.863281 0.542969 19.261719 0.746094 C 19.660156 0.953125 18.613281 9.296875 18.8125 9.695312 C 19.015625 10.097656 26.335938 14.230469 26.265625 14.671875 C 26.191406 15.113281 17.933594 16.695312 17.617188 17.007812 Z M 17.617188 17.007812 " fill-opacity="1" fill-rule="nonzero"/></g></g></g></g><g mask="url(#05d4d4e283)"><g transform="matrix(1, 0, 0, 1, 198, 75)"><g clip-path="url(#1c29aa8619)"><g clip-path="url(#4c2340d19f)"><path fill="#ff914d" d="M 18.023438 17.605469 C 17.703125 17.917969 16.035156 26.160156 15.59375 26.226562 C 15.148438 26.296875 11.09375 18.929688 10.695312 18.726562 C 10.296875 18.519531 1.945312 19.480469 1.742188 19.078125 C 1.542969 18.679688 7.292969 12.546875 7.367188 12.105469 C 7.4375 11.660156 3.945312 4.015625 4.261719 3.699219 C 4.582031 3.382812 12.191406 6.960938 12.632812 6.890625 C 13.078125 6.824219 19.269531 1.136719 19.667969 1.339844 C 20.066406 1.546875 19.019531 9.890625 19.21875 10.289062 C 19.421875 10.691406 26.742188 14.824219 26.671875 15.265625 C 26.597656 15.707031 18.339844 17.289062 18.023438 17.605469 Z M 18.023438 17.605469 " fill-opacity="1" fill-rule="nonzero"/></g></g></g></g><g mask="url(#6ab4ccfe7b)"><g transform="matrix(1, 0, 0, 1, 99, 165)"><g clip-path="url(#681dd45f64)"><g clip-path="url(#6a0bfd1ae1)"><path fill="#ff914d" d="M 16.964844 17.535156 C 16.648438 17.851562 14.980469 26.09375 14.535156 26.160156 C 14.09375 26.230469 10.039062 18.863281 9.640625 18.65625 C 9.242188 18.453125 0.886719 19.414062 0.6875 19.011719 C 0.484375 18.613281 6.238281 12.480469 6.308594 12.035156 C 6.382812 11.59375 2.886719 3.945312 3.207031 3.632812 C 3.523438 3.316406 11.136719 6.890625 11.578125 6.824219 C 12.019531 6.757812 18.214844 1.070312 18.613281 1.273438 C 19.011719 1.480469 17.960938 9.824219 18.164062 10.222656 C 18.363281 10.625 25.6875 14.757812 25.613281 15.199219 C 25.542969 15.640625 17.285156 17.222656 16.964844 17.535156 Z M 16.964844 17.535156 " fill-opacity="1" fill-rule="nonzero"/></g></g></g></g><g mask="url(#5c605b0fed)"><g transform="matrix(1, 0, 0, 1, 1, 166)"><g clip-path="url(#e915f9b0c0)"><path fill="#ff914d" d="M 17.742188 17.339844 C 17.421875 17.65625 15.753906 25.898438 15.3125 25.964844 C 14.871094 26.03125 10.8125 18.667969 10.417969 18.460938 C 10.019531 18.253906 1.664062 19.214844 1.464844 18.816406 C 1.261719 18.414062 7.015625 12.28125 7.085938 11.839844 C 7.160156 11.398438 3.664062 3.75 3.980469 3.433594 C 4.300781 3.121094 11.910156 6.695312 12.355469 6.628906 C 12.796875 6.558594 18.992188 0.871094 19.390625 1.078125 C 19.785156 1.285156 18.738281 9.625 18.941406 10.027344 C 19.140625 10.425781 26.464844 14.558594 26.390625 15.003906 C 26.320312 15.445312 18.058594 17.023438 17.742188 17.339844 Z M 17.742188 17.339844 " fill-opacity="1" fill-rule="nonzero"/></g></g></g><g clip-path="url(#c940dabbbf)"><g mask="url(#40f24b67a4)"><g transform="matrix(1, 0, 0, 1, 268, 168)"><g clip-path="url(#df77e95ae0)"><path fill="#ff914d" d="M 17.289062 18.179688 C 16.96875 18.496094 15.300781 26.738281 14.859375 26.804688 C 14.414062 26.871094 10.359375 19.507812 9.960938 19.300781 C 9.5625 19.097656 1.210938 20.054688 1.007812 19.65625 C 0.808594 19.257812 6.558594 13.121094 6.632812 12.679688 C 6.703125 12.238281 3.210938 4.589844 3.527344 4.277344 C 3.847656 3.960938 11.457031 7.535156 11.898438 7.46875 C 12.34375 7.398438 18.535156 1.714844 18.933594 1.917969 C 19.332031 2.125 18.285156 10.46875 18.484375 10.867188 C 18.6875 11.265625 26.007812 15.398438 25.9375 15.84375 C 25.863281 16.285156 17.605469 17.867188 17.289062 18.179688 Z M 17.289062 18.179688 " fill-opacity="1" fill-rule="nonzero"/></g></g></g></g><path fill="#ff914d" d="M 55.300781 262.824219 C 54.984375 263.136719 53.316406 271.378906 52.871094 271.445312 C 52.429688 271.515625 48.375 264.148438 47.976562 263.945312 C 47.578125 263.738281 39.222656 264.699219 39.023438 264.296875 C 38.820312 263.898438 44.574219 257.765625 44.644531 257.324219 C 44.71875 256.878906 41.222656 249.234375 41.542969 248.917969 C 41.859375 248.601562 49.472656 252.179688 49.914062 252.109375 C 50.355469 252.042969 56.550781 246.355469 56.949219 246.558594 C 57.347656 246.765625 56.296875 255.109375 56.5 255.507812 C 56.699219 255.910156 64.023438 260.042969 63.949219 260.484375 C 63.878906 260.925781 55.621094 262.507812 55.300781 262.824219 Z M 55.300781 262.824219 " fill-opacity="1" fill-rule="nonzero"/><path fill="#ff914d" d="M 50.585938 347.15625 C 50.269531 347.46875 48.601562 355.710938 48.160156 355.777344 C 47.714844 355.847656 43.660156 348.480469 43.261719 348.277344 C 42.863281 348.070312 34.511719 349.03125 34.308594 348.628906 C 34.109375 348.230469 39.859375 342.097656 39.933594 341.65625 C 40.003906 341.210938 36.511719 333.566406 36.828125 333.25 C 37.148438 332.933594 44.757812 336.507812 45.199219 336.441406 C 45.644531 336.375 51.835938 330.6875 52.234375 330.890625 C 52.632812 331.097656 51.585938 339.441406 51.785156 339.839844 C 51.988281 340.242188 59.308594 344.375 59.238281 344.816406 C 59.164062 345.257812 50.90625 346.839844 50.585938 347.15625 Z M 50.585938 347.15625 " fill-opacity="1" fill-rule="nonzero"/><path fill="#ff914d" d="M 162.652344 261.140625 C 162.332031 261.457031 160.664062 269.695312 160.222656 269.765625 C 159.777344 269.832031 155.722656 262.464844 155.324219 262.261719 C 154.925781 262.054688 146.574219 263.015625 146.371094 262.617188 C 146.171875 262.214844 151.921875 256.082031 151.996094 255.640625 C 152.066406 255.199219 148.574219 247.550781 148.890625 247.234375 C 149.210938 246.917969 156.820312 250.496094 157.261719 250.425781 C 157.707031 250.359375 163.898438 244.671875 164.296875 244.878906 C 164.695312 245.082031 163.648438 253.425781 163.847656 253.828125 C 164.050781 254.226562 171.371094 258.359375 171.300781 258.800781 C 171.226562 259.242188 162.96875 260.824219 162.652344 261.140625 Z M 162.652344 261.140625 " fill-opacity="1" fill-rule="nonzero"/><path fill="#ff914d" d="M 257.851562 343.371094 C 257.535156 343.6875 255.867188 351.929688 255.421875 351.996094 C 254.980469 352.0625 250.925781 344.699219 250.527344 344.492188 C 250.128906 344.285156 241.773438 345.246094 241.574219 344.847656 C 241.371094 344.445312 247.125 338.3125 247.195312 337.871094 C 247.269531 337.429688 243.773438 329.78125 244.09375 329.464844 C 244.410156 329.152344 252.023438 332.726562 252.464844 332.660156 C 252.90625 332.589844 259.101562 326.902344 259.5 327.109375 C 259.898438 327.316406 258.847656 335.65625 259.050781 336.058594 C 259.25 336.457031 266.574219 340.589844 266.5 341.035156 C 266.429688 341.476562 258.171875 343.054688 257.851562 343.371094 Z M 257.851562 343.371094 " fill-opacity="1" fill-rule="nonzero"/><path fill="#ff914d" d="M 154.152344 343.777344 C 153.832031 344.09375 152.164062 352.335938 151.722656 352.402344 C 151.28125 352.472656 147.222656 345.105469 146.824219 344.898438 C 146.429688 344.695312 138.074219 345.65625 137.871094 345.253906 C 137.671875 344.855469 143.425781 338.722656 143.496094 338.277344 C 143.570312 337.835938 140.074219 330.1875 140.390625 329.875 C 140.710938 329.558594 148.320312 333.132812 148.765625 333.066406 C 149.207031 333 155.402344 327.3125 155.796875 327.515625 C 156.195312 327.722656 155.148438 336.066406 155.347656 336.464844 C 155.550781 336.867188 162.875 341 162.800781 341.441406 C 162.730469 341.882812 154.46875 343.464844 154.152344 343.777344 Z M 154.152344 343.777344 " fill-opacity="1" fill-rule="nonzero"/><path fill="#ff914d" d="M 271.625 264.785156 C 271.304688 265.101562 269.636719 273.34375 269.195312 273.410156 C 268.75 273.476562 264.695312 266.113281 264.296875 265.90625 C 263.898438 265.703125 255.546875 266.660156 255.34375 266.261719 C 255.144531 265.863281 260.894531 259.726562 260.96875 259.285156 C 261.039062 258.84375 257.546875 251.195312 257.863281 250.882812 C 258.183594 250.566406 265.792969 254.140625 266.234375 254.074219 C 266.679688 254.003906 272.871094 248.320312 273.269531 248.523438 C 273.667969 248.730469 272.621094 257.074219 272.820312 257.472656 C 273.023438 257.871094 280.34375 262.003906 280.273438 262.449219 C 280.199219 262.890625 271.941406 264.472656 271.625 264.785156 Z M 271.625 264.785156 " fill-opacity="1" fill-rule="nonzero"/><g clip-path="url(#f927831282)"><g mask="url(#fafb30acfd)"><g transform="matrix(1, 0, 0, 1, 0, 209)"><g clip-path="url(#2439f0cdde)"><g clip-path="url(#18f4669db3)"><path fill="#ff914d" d="M 12.730469 17.648438 C 12.410156 17.964844 10.742188 26.207031 10.300781 26.273438 C 9.859375 26.34375 5.800781 18.976562 5.40625 18.769531 C 5.007812 18.566406 -3.347656 19.527344 -3.546875 19.125 C -3.75 18.726562 2.003906 12.59375 2.074219 12.148438 C 2.148438 11.707031 -1.347656 4.058594 -1.03125 3.746094 C -0.710938 3.429688 6.898438 7.003906 7.34375 6.9375 C 7.785156 6.871094 13.980469 1.183594 14.378906 1.386719 C 14.773438 1.59375 13.726562 9.9375 13.929688 10.335938 C 14.128906 10.738281 21.453125 14.871094 21.378906 15.3125 C 21.308594 15.753906 13.046875 17.335938 12.730469 17.648438 Z M 12.730469 17.648438 " fill-opacity="1" fill-rule="nonzero"/></g></g></g></g></g><g mask="url(#2bd9cf1ce7)"><g transform="matrix(1, 0, 0, 1, 200, 211)"><g clip-path="url(#94f5a3ce79)"><path fill="#ff914d" d="M 18.15625 17.734375 C 17.835938 18.046875 16.167969 26.289062 15.726562 26.359375 C 15.28125 26.425781 11.226562 19.058594 10.828125 18.855469 C 10.429688 18.648438 2.078125 19.609375 1.875 19.207031 C 1.675781 18.808594 7.425781 12.675781 7.5 12.234375 C 7.570312 11.792969 4.078125 4.144531 4.394531 3.828125 C 4.714844 3.511719 12.324219 7.089844 12.765625 7.019531 C 13.210938 6.953125 19.402344 1.265625 19.800781 1.472656 C 20.199219 1.675781 19.152344 10.019531 19.351562 10.417969 C 19.554688 10.820312 26.875 14.953125 26.804688 15.394531 C 26.730469 15.835938 18.472656 17.417969 18.15625 17.734375 Z M 18.15625 17.734375 " fill-opacity="1" fill-rule="nonzero"/></g></g></g><g mask="url(#d2ebe9994f)"><g transform="matrix(1, 0, 0, 1, 189, 375)"><g clip-path="url(#5de8cd4f42)"><path fill="#ff914d" d="M 17.398438 17.789062 C 17.078125 18.105469 15.410156 26.34375 14.96875 26.414062 C 14.527344 26.480469 10.46875 19.113281 10.074219 18.910156 C 9.675781 18.703125 1.320312 19.664062 1.121094 19.265625 C 0.917969 18.863281 6.671875 12.730469 6.742188 12.289062 C 6.816406 11.847656 3.320312 4.199219 3.640625 3.882812 C 3.957031 3.570312 11.566406 7.144531 12.011719 7.074219 C 12.453125 7.007812 18.648438 1.320312 19.046875 1.527344 C 19.445312 1.730469 18.394531 10.074219 18.597656 10.476562 C 18.796875 10.875 26.121094 15.007812 26.046875 15.449219 C 25.976562 15.894531 17.714844 17.472656 17.398438 17.789062 Z M 17.398438 17.789062 " fill-opacity="1" fill-rule="nonzero"/></g></g></g><g mask="url(#36d4cba98b)"><g transform="matrix(1, 0, 0, 1, 97, 210)"><g clip-path="url(#6b76e45ede)"><g clip-path="url(#d6fc0bec1b)"><path fill="#ff914d" d="M 17.851562 17.113281 C 17.53125 17.429688 15.863281 25.667969 15.421875 25.738281 C 14.980469 25.804688 10.925781 18.4375 10.527344 18.234375 C 10.128906 18.027344 1.773438 18.988281 1.574219 18.589844 C 1.371094 18.1875 7.125 12.054688 7.195312 11.613281 C 7.269531 11.171875 3.773438 3.523438 4.09375 3.207031 C 4.410156 2.890625 12.019531 6.46875 12.464844 6.398438 C 12.90625 6.332031 19.101562 0.644531 19.5 0.851562 C 19.898438 1.054688 18.847656 9.398438 19.050781 9.800781 C 19.25 10.199219 26.574219 14.332031 26.5 14.773438 C 26.429688 15.214844 18.171875 16.796875 17.851562 17.113281 Z M 17.851562 17.113281 " fill-opacity="1" fill-rule="nonzero"/></g></g></g></g><g mask="url(#b5d8a9c3b5)"><g transform="matrix(1, 0, 0, 1, 0, 282)"><g clip-path="url(#e95ef73978)"><g clip-path="url(#7f22384531)"><path fill="#ff914d" d="M 4.667969 17.21875 C 4.351562 17.535156 2.683594 25.773438 2.242188 25.84375 C 1.796875 25.910156 -2.257812 18.542969 -2.65625 18.339844 C -3.054688 18.132812 -11.40625 19.09375 -11.609375 18.695312 C -11.808594 18.292969 -6.058594 12.160156 -5.984375 11.71875 C -5.914062 11.277344 -9.410156 3.628906 -9.089844 3.3125 C -8.769531 3 -1.160156 6.574219 -0.71875 6.503906 C -0.273438 6.4375 5.917969 0.75 6.316406 0.957031 C 6.714844 1.160156 5.667969 9.503906 5.867188 9.90625 C 6.070312 10.304688 13.390625 14.4375 13.320312 14.878906 C 13.246094 15.324219 4.988281 16.902344 4.667969 17.21875 Z M 4.667969 17.21875 " fill-opacity="1" fill-rule="nonzero"/></g></g></g></g><g mask="url(#24b1de64c8)"><g transform="matrix(1, 0, 0, 1, 83, 286)"><g clip-path="url(#dfc1986ab4)"><g clip-path="url(#9339807b98)"><path fill="#ff914d" d="M 17.265625 16.863281 C 16.945312 17.179688 15.277344 25.421875 14.835938 25.488281 C 14.394531 25.558594 10.335938 18.191406 9.941406 17.984375 C 9.542969 17.78125 1.1875 18.742188 0.988281 18.339844 C 0.785156 17.941406 6.539062 11.808594 6.609375 11.363281 C 6.683594 10.921875 3.1875 3.273438 3.507812 2.960938 C 3.824219 2.644531 11.433594 6.21875 11.878906 6.152344 C 12.320312 6.085938 18.515625 0.398438 18.914062 0.601562 C 19.308594 0.808594 18.261719 9.152344 18.464844 9.550781 C 18.664062 9.953125 25.988281 14.085938 25.914062 14.527344 C 25.84375 14.96875 17.582031 16.550781 17.265625 16.863281 Z M 17.265625 16.863281 " fill-opacity="1" fill-rule="nonzero"/></g></g></g></g><g mask="url(#56be21cefa)"><g transform="matrix(1, 0, 0, 1, 194, 285)"><g clip-path="url(#102ea4b1df)"><g clip-path="url(#8fd3e41066)"><path fill="#ff914d" d="M 17.671875 17.460938 C 17.351562 17.773438 15.683594 26.015625 15.242188 26.082031 C 14.800781 26.152344 10.742188 18.785156 10.34375 18.582031 C 9.949219 18.375 1.59375 19.335938 1.390625 18.933594 C 1.191406 18.535156 6.945312 12.402344 7.015625 11.960938 C 7.089844 11.515625 3.59375 3.871094 3.910156 3.554688 C 4.230469 3.238281 11.839844 6.816406 12.285156 6.746094 C 12.726562 6.679688 18.921875 0.992188 19.316406 1.195312 C 19.714844 1.402344 18.667969 9.746094 18.867188 10.144531 C 19.070312 10.546875 26.394531 14.679688 26.320312 15.121094 C 26.25 15.5625 17.988281 17.144531 17.671875 17.460938 Z M 17.671875 17.460938 " fill-opacity="1" fill-rule="nonzero"/></g></g></g></g><g mask="url(#536516b65b)"><g transform="matrix(1, 0, 0, 1, 94, 375)"><g clip-path="url(#b4c1872cd6)"><g clip-path="url(#fc06a31466)"><path fill="#ff914d" d="M 17.613281 17.390625 C 17.296875 17.707031 15.628906 25.949219 15.1875 26.015625 C 14.742188 26.085938 10.6875 18.71875 10.289062 18.511719 C 9.890625 18.308594 1.539062 19.269531 1.335938 18.867188 C 1.136719 18.46875 6.886719 12.335938 6.960938 11.890625 C 7.03125 11.449219 3.539062 3.800781 3.855469 3.488281 C 4.175781 3.171875 11.785156 6.746094 12.226562 6.679688 C 12.671875 6.613281 18.863281 0.925781 19.261719 1.128906 C 19.660156 1.335938 18.613281 9.679688 18.8125 10.078125 C 19.015625 10.480469 26.335938 14.613281 26.265625 15.054688 C 26.191406 15.496094 17.933594 17.078125 17.613281 17.390625 Z M 17.613281 17.390625 " fill-opacity="1" fill-rule="nonzero"/></g></g></g></g><g mask="url(#91c32efd16)"><g transform="matrix(1, 0, 0, 1, 0, 376)"><g clip-path="url(#80e01a1c64)"><g clip-path="url(#674ffb8adf)"><path fill="#ff914d" d="M 14.390625 17.195312 C 14.074219 17.511719 12.40625 25.753906 11.960938 25.820312 C 11.519531 25.886719 7.464844 18.523438 7.066406 18.316406 C 6.667969 18.109375 -1.6875 19.070312 -1.886719 18.671875 C -2.089844 18.269531 3.664062 12.136719 3.734375 11.695312 C 3.808594 11.253906 0.3125 3.605469 0.632812 3.289062 C 0.949219 2.976562 8.5625 6.550781 9.003906 6.484375 C 9.445312 6.414062 15.640625 0.726562 16.039062 0.933594 C 16.4375 1.140625 15.386719 9.480469 15.589844 9.882812 C 15.789062 10.28125 23.113281 14.414062 23.039062 14.859375 C 22.96875 15.300781 14.710938 16.878906 14.390625 17.195312 Z M 14.390625 17.195312 " fill-opacity="1" fill-rule="nonzero"/></g></g></g></g><g clip-path="url(#2ad0d14da0)"><g mask="url(#bd9344be2f)"><g transform="matrix(1, 0, 0, 1, 264, 378)"><g clip-path="url(#7ef7748bc8)"><g clip-path="url(#12040a2446)"><path fill="#ff914d" d="M 16.9375 18.035156 C 16.617188 18.351562 14.949219 26.59375 14.507812 26.660156 C 14.066406 26.726562 10.007812 19.363281 9.609375 19.15625 C 9.214844 18.953125 0.859375 19.910156 0.660156 19.511719 C 0.457031 19.113281 6.210938 12.976562 6.28125 12.535156 C 6.355469 12.09375 2.859375 4.445312 3.175781 4.132812 C 3.496094 3.816406 11.105469 7.390625 11.550781 7.324219 C 11.992188 7.253906 18.1875 1.570312 18.582031 1.773438 C 18.980469 1.980469 17.933594 10.324219 18.132812 10.722656 C 18.335938 11.121094 25.660156 15.253906 25.585938 15.699219 C 25.515625 16.140625 17.253906 17.722656 16.9375 18.035156 Z M 16.9375 18.035156 " fill-opacity="1" fill-rule="nonzero"/></g></g></g></g></g><path fill="#ff914d" d="M 51.578125 466.273438 C 51.261719 466.589844 49.59375 474.832031 49.148438 474.898438 C 48.707031 474.96875 44.652344 467.601562 44.253906 467.394531 C 43.855469 467.191406 35.5 468.152344 35.300781 467.75 C 35.097656 467.351562 40.851562 461.21875 40.925781 460.773438 C 40.996094 460.332031 37.5 452.683594 37.820312 452.371094 C 38.136719 452.054688 45.75 455.628906 46.191406 455.5625 C 46.632812 455.496094 52.828125 449.808594 53.226562 450.011719 C 53.625 450.21875 52.574219 458.5625 52.777344 458.960938 C 52.976562 459.363281 60.300781 463.496094 60.230469 463.9375 C 60.15625 464.378906 51.898438 465.960938 51.578125 466.273438 Z M 51.578125 466.273438 " fill-opacity="1" fill-rule="nonzero"/><path fill="#ff914d" d="M 46.867188 550.605469 C 46.546875 550.921875 44.878906 559.164062 44.4375 559.230469 C 43.992188 559.300781 39.9375 551.933594 39.539062 551.726562 C 39.140625 551.523438 30.789062 552.484375 30.585938 552.082031 C 30.386719 551.683594 36.136719 545.550781 36.210938 545.105469 C 36.28125 544.664062 32.789062 537.015625 33.105469 536.703125 C 33.425781 536.386719 41.035156 539.960938 41.476562 539.894531 C 41.921875 539.828125 48.113281 534.140625 48.511719 534.34375 C 48.910156 534.550781 47.863281 542.894531 48.0625 543.292969 C 48.265625 543.695312 55.585938 547.828125 55.515625 548.269531 C 55.441406 548.710938 47.183594 550.292969 46.867188 550.605469 Z M 46.867188 550.605469 " fill-opacity="1" fill-rule="nonzero"/><path fill="#ff914d" d="M 158.929688 464.59375 C 158.609375 464.90625 156.941406 473.148438 156.5 473.214844 C 156.054688 473.285156 152 465.917969 151.601562 465.714844 C 151.203125 465.507812 142.851562 466.46875 142.648438 466.066406 C 142.449219 465.667969 148.199219 459.535156 148.273438 459.09375 C 148.347656 458.648438 144.851562 451.003906 145.167969 450.6875 C 145.488281 450.371094 153.097656 453.949219 153.542969 453.878906 C 153.984375 453.8125 160.175781 448.125 160.574219 448.328125 C 160.972656 448.535156 159.925781 456.878906 160.125 457.277344 C 160.328125 457.679688 167.652344 461.8125 167.578125 462.253906 C 167.503906 462.695312 159.246094 464.277344 158.929688 464.59375 Z M 158.929688 464.59375 " fill-opacity="1" fill-rule="nonzero"/><path fill="#ff914d" d="M 254.128906 546.824219 C 253.8125 547.140625 252.144531 555.378906 251.699219 555.449219 C 251.257812 555.515625 247.203125 548.148438 246.804688 547.945312 C 246.40625 547.738281 238.050781 548.699219 237.851562 548.300781 C 237.648438 547.898438 243.402344 541.765625 243.476562 541.324219 C 243.546875 540.882812 240.050781 533.234375 240.371094 532.917969 C 240.6875 532.601562 248.300781 536.179688 248.742188 536.109375 C 249.183594 536.042969 255.378906 530.355469 255.777344 530.5625 C 256.175781 530.765625 255.125 539.109375 255.328125 539.511719 C 255.527344 539.910156 262.851562 544.042969 262.78125 544.484375 C 262.707031 544.925781 254.449219 546.507812 254.128906 546.824219 Z M 254.128906 546.824219 " fill-opacity="1" fill-rule="nonzero"/><path fill="#ff914d" d="M 150.429688 547.230469 C 150.109375 547.546875 148.445312 555.789062 148 555.855469 C 147.558594 555.921875 143.503906 548.558594 143.105469 548.351562 C 142.707031 548.144531 134.351562 549.105469 134.152344 548.707031 C 133.949219 548.304688 139.703125 542.171875 139.773438 541.730469 C 139.847656 541.289062 136.351562 533.640625 136.671875 533.324219 C 136.988281 533.011719 144.597656 536.585938 145.042969 536.519531 C 145.484375 536.449219 151.679688 530.761719 152.078125 530.96875 C 152.476562 531.175781 151.425781 539.515625 151.628906 539.917969 C 151.828125 540.316406 159.152344 544.449219 159.078125 544.894531 C 159.007812 545.335938 150.746094 546.914062 150.429688 547.230469 Z M 150.429688 547.230469 " fill-opacity="1" fill-rule="nonzero"/><path fill="#ff914d" d="M 267.902344 468.238281 C 267.582031 468.554688 265.914062 476.792969 265.472656 476.863281 C 265.03125 476.929688 260.972656 469.566406 260.574219 469.359375 C 260.179688 469.152344 251.824219 470.113281 251.621094 469.714844 C 251.421875 469.3125 257.175781 463.179688 257.246094 462.738281 C 257.320312 462.296875 253.824219 454.648438 254.140625 454.332031 C 254.460938 454.019531 262.070312 457.59375 262.515625 457.527344 C 262.957031 457.457031 269.152344 451.769531 269.546875 451.976562 C 269.945312 452.179688 268.898438 460.523438 269.097656 460.925781 C 269.300781 461.324219 276.625 465.457031 276.550781 465.898438 C 276.480469 466.34375 268.21875 467.921875 267.902344 468.238281 Z M 267.902344 468.238281 " fill-opacity="1" fill-rule="nonzero"/><g clip-path="url(#65b7800ba3)"><g mask="url(#a797783d35)"><g transform="matrix(1, 0, 0, 1, 0, 413)"><g clip-path="url(#dd4961896a)"><g clip-path="url(#c6d721543b)"><path fill="#ff914d" d="M 9.007812 17.101562 C 8.691406 17.417969 7.023438 25.660156 6.578125 25.726562 C 6.136719 25.792969 2.082031 18.429688 1.683594 18.222656 C 1.285156 18.015625 -7.070312 18.976562 -7.269531 18.578125 C -7.472656 18.175781 -1.71875 12.042969 -1.648438 11.601562 C -1.574219 11.160156 -5.070312 3.511719 -4.75 3.195312 C -4.433594 2.882812 3.179688 6.457031 3.621094 6.390625 C 4.0625 6.320312 10.257812 0.632812 10.65625 0.839844 C 11.054688 1.046875 10.003906 9.386719 10.207031 9.789062 C 10.40625 10.1875 17.730469 14.320312 17.65625 14.761719 C 17.585938 15.207031 9.328125 16.785156 9.007812 17.101562 Z M 9.007812 17.101562 " fill-opacity="1" fill-rule="nonzero"/></g></g></g></g></g><g mask="url(#c40faeddb4)"><g transform="matrix(1, 0, 0, 1, 197, 414)"><g clip-path="url(#7feaadd62c)"><path fill="#ff914d" d="M 17.433594 18.183594 C 17.113281 18.5 15.445312 26.742188 15.003906 26.808594 C 14.5625 26.878906 10.503906 19.511719 10.109375 19.304688 C 9.710938 19.101562 1.355469 20.0625 1.15625 19.660156 C 0.953125 19.261719 6.707031 13.128906 6.777344 12.683594 C 6.851562 12.242188 3.355469 4.59375 3.671875 4.28125 C 3.992188 3.964844 11.601562 7.539062 12.046875 7.472656 C 12.488281 7.40625 18.683594 1.71875 19.082031 1.921875 C 19.476562 2.128906 18.429688 10.472656 18.632812 10.871094 C 18.832031 11.273438 26.15625 15.40625 26.082031 15.847656 C 26.011719 16.289062 17.75 17.871094 17.433594 18.183594 Z M 17.433594 18.183594 " fill-opacity="1" fill-rule="nonzero"/></g></g></g><g mask="url(#06af04d9cf)"><g transform="matrix(1, 0, 0, 1, 185, 578)"><g clip-path="url(#f2d2b4808d)"><path fill="#ff914d" d="M 17.675781 18.242188 C 17.359375 18.554688 15.691406 26.796875 15.246094 26.867188 C 14.804688 26.933594 10.75 19.566406 10.351562 19.363281 C 9.953125 19.15625 1.597656 20.117188 1.398438 19.714844 C 1.195312 19.316406 6.949219 13.183594 7.019531 12.742188 C 7.09375 12.296875 3.597656 4.652344 3.917969 4.335938 C 4.234375 4.019531 11.847656 7.597656 12.289062 7.527344 C 12.730469 7.460938 18.925781 1.773438 19.324219 1.980469 C 19.722656 2.183594 18.671875 10.527344 18.875 10.925781 C 19.074219 11.328125 26.398438 15.460938 26.324219 15.902344 C 26.253906 16.34375 17.996094 17.925781 17.675781 18.242188 Z M 17.675781 18.242188 " fill-opacity="1" fill-rule="nonzero"/></g></g></g><g clip-path="url(#a53e2de663)"><g mask="url(#4a9c9481c0)"><g transform="matrix(1, 0, 0, 1, 94, 413)"><g clip-path="url(#a983f94360)"><g clip-path="url(#cbc6c17631)"><path fill="#ff914d" d="M 17.128906 17.566406 C 16.8125 17.878906 15.144531 26.121094 14.699219 26.1875 C 14.257812 26.257812 10.203125 18.890625 9.804688 18.6875 C 9.40625 18.480469 1.050781 19.441406 0.851562 19.039062 C 0.648438 18.640625 6.402344 12.507812 6.472656 12.066406 C 6.546875 11.621094 3.050781 3.976562 3.371094 3.660156 C 3.6875 3.34375 11.300781 6.921875 11.742188 6.851562 C 12.183594 6.785156 18.378906 1.097656 18.777344 1.300781 C 19.175781 1.507812 18.125 9.851562 18.328125 10.25 C 18.527344 10.652344 25.851562 14.785156 25.777344 15.226562 C 25.707031 15.667969 17.449219 17.25 17.128906 17.566406 Z M 17.128906 17.566406 " fill-opacity="1" fill-rule="nonzero"/></g></g></g></g></g><g mask="url(#df629f2c17)"><g transform="matrix(1, 0, 0, 1, 0, 485)"><g clip-path="url(#d625f7dc17)"><g clip-path="url(#1aa4dc7304)"><path fill="#ff914d" d="M 0.949219 17.671875 C 0.628906 17.984375 -1.039062 26.226562 -1.480469 26.296875 C -1.925781 26.363281 -5.980469 18.996094 -6.378906 18.792969 C -6.777344 18.585938 -15.128906 19.546875 -15.332031 19.144531 C -15.53125 18.746094 -9.78125 12.613281 -9.707031 12.171875 C -9.636719 11.726562 -13.128906 4.082031 -12.8125 3.765625 C -12.492188 3.449219 -4.882812 7.027344 -4.441406 6.957031 C -3.996094 6.890625 2.195312 1.203125 2.59375 1.410156 C 2.992188 1.613281 1.945312 9.957031 2.144531 10.355469 C 2.347656 10.757812 9.667969 14.890625 9.597656 15.332031 C 9.523438 15.773438 1.265625 17.355469 0.949219 17.671875 Z M 0.949219 17.671875 " fill-opacity="1" fill-rule="nonzero"/></g></g></g></g><g mask="url(#a33f6bf0a0)"><g transform="matrix(1, 0, 0, 1, 79, 489)"><g clip-path="url(#f35e1f4f51)"><path fill="#ff914d" d="M 17.542969 17.316406 C 17.226562 17.632812 15.558594 25.875 15.113281 25.941406 C 14.671875 26.007812 10.617188 18.644531 10.21875 18.4375 C 9.820312 18.230469 1.464844 19.191406 1.265625 18.792969 C 1.0625 18.390625 6.816406 12.257812 6.886719 11.816406 C 6.960938 11.375 3.464844 3.726562 3.785156 3.410156 C 4.101562 3.097656 11.714844 6.671875 12.15625 6.605469 C 12.597656 6.535156 18.792969 0.847656 19.191406 1.054688 C 19.589844 1.261719 18.539062 9.601562 18.742188 10.003906 C 18.941406 10.402344 26.265625 14.535156 26.191406 14.976562 C 26.121094 15.421875 17.863281 17 17.542969 17.316406 Z M 17.542969 17.316406 " fill-opacity="1" fill-rule="nonzero"/></g></g></g><g mask="url(#f163b40932)"><g transform="matrix(1, 0, 0, 1, 190, 488)"><g clip-path="url(#53f35995cf)"><g clip-path="url(#9157965b33)"><path fill="#ff914d" d="M 17.949219 17.910156 C 17.628906 18.226562 15.964844 26.46875 15.519531 26.535156 C 15.078125 26.605469 11.023438 19.238281 10.625 19.03125 C 10.226562 18.828125 1.871094 19.789062 1.671875 19.386719 C 1.46875 18.988281 7.222656 12.855469 7.292969 12.410156 C 7.367188 11.96875 3.871094 4.320312 4.191406 4.007812 C 4.507812 3.691406 12.117188 7.265625 12.5625 7.199219 C 13.003906 7.132812 19.199219 1.445312 19.597656 1.648438 C 19.996094 1.855469 18.945312 10.199219 19.148438 10.597656 C 19.347656 11 26.671875 15.132812 26.597656 15.574219 C 26.527344 16.015625 18.265625 17.597656 17.949219 17.910156 Z M 17.949219 17.910156 " fill-opacity="1" fill-rule="nonzero"/></g></g></g></g><g mask="url(#ba534bdb20)"><g transform="matrix(1, 0, 0, 1, 90, 578)"><g clip-path="url(#ee862dd21a)"><g clip-path="url(#9aecc85fc0)"><path fill="#ff914d" d="M 17.894531 17.84375 C 17.574219 18.160156 15.90625 26.402344 15.464844 26.46875 C 15.019531 26.535156 10.964844 19.171875 10.566406 18.964844 C 10.167969 18.757812 1.816406 19.71875 1.613281 19.320312 C 1.414062 18.917969 7.164062 12.785156 7.238281 12.34375 C 7.308594 11.902344 3.816406 4.253906 4.132812 3.9375 C 4.453125 3.625 12.0625 7.199219 12.503906 7.132812 C 12.949219 7.0625 19.140625 1.375 19.539062 1.582031 C 19.9375 1.789062 18.890625 10.128906 19.089844 10.53125 C 19.292969 10.929688 26.613281 15.0625 26.542969 15.507812 C 26.46875 15.949219 18.210938 17.527344 17.894531 17.84375 Z M 17.894531 17.84375 " fill-opacity="1" fill-rule="nonzero"/></g></g></g></g><g mask="url(#849c493473)"><g transform="matrix(1, 0, 0, 1, 0, 579)"><g clip-path="url(#d1af1134d9)"><g clip-path="url(#0d60fc0f76)"><path fill="#ff914d" d="M 10.667969 17.648438 C 10.351562 17.964844 8.683594 26.203125 8.238281 26.273438 C 7.796875 26.339844 3.742188 18.972656 3.34375 18.769531 C 2.945312 18.5625 -5.40625 19.523438 -5.609375 19.125 C -5.8125 18.722656 -0.0585938 12.589844 0.015625 12.148438 C 0.0859375 11.707031 -3.410156 4.058594 -3.089844 3.742188 C -2.773438 3.429688 4.839844 7.003906 5.28125 6.933594 C 5.726562 6.867188 11.917969 1.179688 12.316406 1.386719 C 12.714844 1.589844 11.664062 9.933594 11.867188 10.335938 C 12.070312 10.734375 19.390625 14.867188 19.320312 15.308594 C 19.246094 15.753906 10.988281 17.332031 10.667969 17.648438 Z M 10.667969 17.648438 " fill-opacity="1" fill-rule="nonzero"/></g></g></g></g><g clip-path="url(#36c7d4ee04)"><g mask="url(#8095b621b5)"><g transform="matrix(1, 0, 0, 1, 260, 582)"><g clip-path="url(#350926404d)"><g clip-path="url(#aa84cfa559)"><path fill="#ff914d" d="M 17.214844 17.488281 C 16.894531 17.804688 15.230469 26.042969 14.785156 26.113281 C 14.34375 26.179688 10.289062 18.816406 9.890625 18.609375 C 9.492188 18.402344 1.136719 19.363281 0.9375 18.964844 C 0.734375 18.5625 6.488281 12.429688 6.558594 11.988281 C 6.632812 11.546875 3.136719 3.898438 3.457031 3.582031 C 3.773438 3.269531 11.382812 6.84375 11.828125 6.777344 C 12.269531 6.707031 18.464844 1.019531 18.863281 1.226562 C 19.261719 1.429688 18.210938 9.773438 18.414062 10.175781 C 18.613281 10.574219 25.9375 14.707031 25.863281 15.148438 C 25.792969 15.59375 17.535156 17.171875 17.214844 17.488281 Z M 17.214844 17.488281 " fill-opacity="1" fill-rule="nonzero"/></g></g></g></g></g><path fill="#ff914d" d="M 55.929688 684.550781 C 55.609375 684.867188 53.945312 693.109375 53.5 693.175781 C 53.058594 693.246094 49.003906 685.878906 48.605469 685.671875 C 48.207031 685.46875 39.851562 686.429688 39.652344 686.027344 C 39.449219 685.628906 45.203125 679.496094 45.273438 679.050781 C 45.347656 678.609375 41.851562 670.960938 42.171875 670.648438 C 42.488281 670.332031 50.097656 673.90625 50.542969 673.839844 C 50.984375 673.773438 57.179688 668.085938 57.578125 668.289062 C 57.976562 668.496094 56.925781 676.839844 57.128906 677.238281 C 57.328125 677.640625 64.652344 681.773438 64.578125 682.214844 C 64.507812 682.65625 56.25 684.238281 55.929688 684.550781 Z M 55.929688 684.550781 " fill-opacity="1" fill-rule="nonzero"/><path fill="#ff914d" d="M 51.214844 768.882812 C 50.898438 769.199219 49.230469 777.441406 48.789062 777.507812 C 48.34375 777.578125 44.289062 770.210938 43.890625 770.003906 C 43.492188 769.800781 35.140625 770.761719 34.9375 770.359375 C 34.738281 769.960938 40.488281 763.828125 40.5625 763.382812 C 40.632812 762.941406 37.136719 755.292969 37.457031 754.980469 C 37.777344 754.664062 45.386719 758.238281 45.828125 758.171875 C 46.273438 758.105469 52.464844 752.417969 52.863281 752.621094 C 53.261719 752.828125 52.214844 761.171875 52.414062 761.570312 C 52.617188 761.972656 59.9375 766.105469 59.867188 766.546875 C 59.792969 766.988281 51.535156 768.570312 51.214844 768.882812 Z M 51.214844 768.882812 " fill-opacity="1" fill-rule="nonzero"/><path fill="#ff914d" d="M 163.277344 682.871094 C 162.960938 683.183594 161.292969 691.425781 160.851562 691.496094 C 160.40625 691.5625 156.351562 684.195312 155.953125 683.992188 C 155.554688 683.785156 147.203125 684.746094 147 684.34375 C 146.800781 683.945312 152.550781 677.8125 152.625 677.371094 C 152.695312 676.925781 149.203125 669.28125 149.519531 668.964844 C 149.839844 668.648438 157.449219 672.226562 157.890625 672.15625 C 158.335938 672.089844 164.527344 666.402344 164.925781 666.609375 C 165.324219 666.8125 164.277344 675.15625 164.476562 675.554688 C 164.679688 675.957031 172 680.089844 171.929688 680.53125 C 171.855469 680.972656 163.597656 682.554688 163.277344 682.871094 Z M 163.277344 682.871094 " fill-opacity="1" fill-rule="nonzero"/><path fill="#ff914d" d="M 258.480469 765.101562 C 258.164062 765.417969 256.496094 773.65625 256.050781 773.726562 C 255.609375 773.792969 251.554688 766.425781 251.15625 766.222656 C 250.757812 766.015625 242.402344 766.976562 242.203125 766.578125 C 242 766.175781 247.753906 760.042969 247.824219 759.601562 C 247.898438 759.160156 244.402344 751.511719 244.722656 751.195312 C 245.039062 750.878906 252.648438 754.457031 253.09375 754.386719 C 253.535156 754.320312 259.730469 748.632812 260.128906 748.839844 C 260.527344 749.042969 259.476562 757.386719 259.679688 757.789062 C 259.878906 758.1875 267.203125 762.320312 267.128906 762.761719 C 267.058594 763.203125 258.800781 764.785156 258.480469 765.101562 Z M 258.480469 765.101562 " fill-opacity="1" fill-rule="nonzero"/><path fill="#ff914d" d="M 154.78125 765.507812 C 154.460938 765.824219 152.792969 774.066406 152.351562 774.132812 C 151.910156 774.199219 147.851562 766.835938 147.453125 766.628906 C 147.054688 766.421875 138.703125 767.382812 138.5 766.984375 C 138.300781 766.582031 144.050781 760.449219 144.125 760.007812 C 144.199219 759.566406 140.703125 751.917969 141.019531 751.601562 C 141.339844 751.289062 148.949219 754.863281 149.394531 754.796875 C 149.835938 754.726562 156.027344 749.039062 156.425781 749.246094 C 156.824219 749.453125 155.777344 757.792969 155.976562 758.195312 C 156.179688 758.59375 163.503906 762.726562 163.429688 763.171875 C 163.355469 763.613281 155.097656 765.191406 154.78125 765.507812 Z M 154.78125 765.507812 " fill-opacity="1" fill-rule="nonzero"/><path fill="#ff914d" d="M 272.253906 686.515625 C 271.933594 686.832031 270.265625 695.074219 269.824219 695.140625 C 269.378906 695.207031 265.324219 687.84375 264.925781 687.636719 C 264.527344 687.429688 256.175781 688.390625 255.972656 687.992188 C 255.773438 687.589844 261.523438 681.457031 261.597656 681.015625 C 261.667969 680.574219 258.175781 672.925781 258.492188 672.609375 C 258.8125 672.296875 266.421875 675.871094 266.863281 675.804688 C 267.308594 675.734375 273.5 670.046875 273.898438 670.253906 C 274.296875 670.460938 273.25 678.800781 273.449219 679.203125 C 273.652344 679.601562 280.972656 683.734375 280.902344 684.175781 C 280.828125 684.621094 272.570312 686.199219 272.253906 686.515625 Z M 272.253906 686.515625 " fill-opacity="1" fill-rule="nonzero"/><g clip-path="url(#817fff525b)"><g mask="url(#230fd153c1)"><g transform="matrix(1, 0, 0, 1, 0, 631)"><g clip-path="url(#514ece7315)"><g clip-path="url(#2b7f55a0aa)"><path fill="#ff914d" d="M 13.359375 17.378906 C 13.039062 17.695312 11.371094 25.9375 10.929688 26.003906 C 10.488281 26.070312 6.429688 18.707031 6.03125 18.5 C 5.636719 18.292969 -2.71875 19.253906 -2.917969 18.855469 C -3.121094 18.453125 2.632812 12.320312 2.703125 11.878906 C 2.777344 11.4375 -0.71875 3.789062 -0.402344 3.472656 C -0.0820312 3.160156 7.527344 6.734375 7.972656 6.667969 C 8.414062 6.597656 14.609375 0.910156 15.003906 1.117188 C 15.402344 1.324219 14.355469 9.664062 14.554688 10.066406 C 14.757812 10.464844 22.082031 14.597656 22.007812 15.042969 C 21.9375 15.484375 13.675781 17.0625 13.359375 17.378906 Z M 13.359375 17.378906 " fill-opacity="1" fill-rule="nonzero"/></g></g></g></g></g><g mask="url(#994892eefa)"><g transform="matrix(1, 0, 0, 1, 201, 633)"><g clip-path="url(#5e5a63af64)"><path fill="#ff914d" d="M 17.785156 17.464844 C 17.464844 17.777344 15.796875 26.019531 15.355469 26.085938 C 14.910156 26.15625 10.855469 18.789062 10.457031 18.582031 C 10.058594 18.378906 1.707031 19.339844 1.503906 18.9375 C 1.304688 18.539062 7.054688 12.40625 7.128906 11.960938 C 7.199219 11.519531 3.707031 3.871094 4.023438 3.558594 C 4.34375 3.242188 11.953125 6.816406 12.394531 6.75 C 12.839844 6.683594 19.03125 0.996094 19.429688 1.199219 C 19.828125 1.40625 18.78125 9.75 18.980469 10.148438 C 19.183594 10.550781 26.503906 14.683594 26.433594 15.125 C 26.359375 15.566406 18.101562 17.148438 17.785156 17.460938 Z M 17.785156 17.464844 " fill-opacity="1" fill-rule="nonzero"/></g></g></g><g mask="url(#5511d2a848)"><g transform="matrix(1, 0, 0, 1, 189, 797)"><g clip-path="url(#afd0fda0c1)"><g clip-path="url(#44fcc0fae0)"><path fill="#ff914d" d="M 18.027344 17.519531 C 17.707031 17.832031 16.039062 26.074219 15.597656 26.144531 C 15.15625 26.210938 11.097656 18.84375 10.703125 18.640625 C 10.304688 18.433594 1.949219 19.394531 1.75 18.992188 C 1.546875 18.59375 7.300781 12.460938 7.371094 12.019531 C 7.445312 11.578125 3.949219 3.929688 4.269531 3.613281 C 4.585938 3.296875 12.195312 6.875 12.640625 6.804688 C 13.082031 6.738281 19.277344 1.050781 19.675781 1.257812 C 20.070312 1.460938 19.023438 9.804688 19.226562 10.203125 C 19.425781 10.605469 26.75 14.738281 26.675781 15.179688 C 26.605469 15.621094 18.34375 17.203125 18.027344 17.519531 Z M 18.027344 17.519531 " fill-opacity="1" fill-rule="nonzero"/></g></g></g></g><g mask="url(#597d1814ca)"><g transform="matrix(1, 0, 0, 1, 98, 632)"><g clip-path="url(#9781a7db63)"><g clip-path="url(#888bc2736f)"><path fill="#ff914d" d="M 17.480469 16.84375 C 17.160156 17.15625 15.492188 25.398438 15.050781 25.46875 C 14.609375 25.535156 10.550781 18.167969 10.15625 17.964844 C 9.757812 17.757812 1.402344 18.71875 1.203125 18.316406 C 1 17.917969 6.753906 11.785156 6.824219 11.34375 C 6.898438 10.898438 3.402344 3.253906 3.722656 2.9375 C 4.039062 2.621094 11.648438 6.199219 12.09375 6.128906 C 12.535156 6.0625 18.730469 0.375 19.128906 0.582031 C 19.527344 0.785156 18.476562 9.128906 18.679688 9.527344 C 18.878906 9.929688 26.203125 14.0625 26.128906 14.503906 C 26.058594 14.945312 17.796875 16.527344 17.480469 16.84375 Z M 17.480469 16.84375 " fill-opacity="1" fill-rule="nonzero"/></g></g></g></g><g mask="url(#8d733619d8)"><g transform="matrix(1, 0, 0, 1, 0, 703)"><g clip-path="url(#cc0e6264fd)"><g clip-path="url(#7b4a9118b4)"><path fill="#ff914d" d="M 5.296875 17.949219 C 4.980469 18.261719 3.3125 26.503906 2.867188 26.574219 C 2.425781 26.640625 -1.628906 19.273438 -2.027344 19.070312 C -2.425781 18.863281 -10.777344 19.824219 -10.980469 19.421875 C -11.179688 19.023438 -5.429688 12.890625 -5.355469 12.449219 C -5.285156 12.007812 -8.78125 4.359375 -8.460938 4.042969 C -8.144531 3.726562 -0.53125 7.304688 -0.0898438 7.234375 C 0.355469 7.167969 6.546875 1.480469 6.945312 1.6875 C 7.34375 1.890625 6.292969 10.234375 6.496094 10.632812 C 6.699219 11.035156 14.019531 15.167969 13.949219 15.609375 C 13.875 16.050781 5.617188 17.632812 5.296875 17.949219 Z M 5.296875 17.949219 " fill-opacity="1" fill-rule="nonzero"/></g></g></g></g><g mask="url(#43a55b803c)"><g transform="matrix(1, 0, 0, 1, 83, 708)"><g clip-path="url(#91295600f4)"><g clip-path="url(#63a837633e)"><path fill="#ff914d" d="M 17.894531 16.59375 C 17.574219 16.910156 15.90625 25.152344 15.464844 25.21875 C 15.023438 25.285156 10.964844 17.921875 10.570312 17.714844 C 10.171875 17.507812 1.816406 18.46875 1.617188 18.070312 C 1.414062 17.667969 7.167969 11.535156 7.238281 11.09375 C 7.3125 10.652344 3.816406 3.003906 4.132812 2.6875 C 4.453125 2.375 12.0625 5.949219 12.507812 5.882812 C 12.949219 5.8125 19.144531 0.125 19.542969 0.332031 C 19.9375 0.539062 18.890625 8.878906 19.09375 9.28125 C 19.292969 9.679688 26.617188 13.8125 26.542969 14.257812 C 26.472656 14.699219 18.210938 16.277344 17.894531 16.59375 Z M 17.894531 16.59375 " fill-opacity="1" fill-rule="nonzero"/></g></g></g></g><g mask="url(#578ab49d51)"><g transform="matrix(1, 0, 0, 1, 195, 707)"><g clip-path="url(#45c133ae0a)"><g clip-path="url(#4b8933b8e6)"><path fill="#ff914d" d="M 17.300781 17.1875 C 16.980469 17.503906 15.3125 25.746094 14.871094 25.8125 C 14.429688 25.882812 10.371094 18.515625 9.972656 18.308594 C 9.574219 18.105469 1.222656 19.066406 1.019531 18.664062 C 0.820312 18.265625 6.570312 12.132812 6.644531 11.6875 C 6.71875 11.246094 3.222656 3.597656 3.539062 3.285156 C 3.859375 2.96875 11.46875 6.542969 11.914062 6.476562 C 12.355469 6.410156 18.546875 0.722656 18.945312 0.925781 C 19.34375 1.132812 18.296875 9.476562 18.496094 9.875 C 18.699219 10.277344 26.023438 14.410156 25.949219 14.851562 C 25.875 15.292969 17.617188 16.875 17.300781 17.1875 Z M 17.300781 17.1875 " fill-opacity="1" fill-rule="nonzero"/></g></g></g></g><g mask="url(#5ee2bf4ac6)"><g transform="matrix(1, 0, 0, 1, 95, 797)"><g clip-path="url(#09f03a7618)"><g clip-path="url(#2a0582230a)"><path fill="#ff914d" d="M 17.242188 17.121094 C 16.925781 17.4375 15.257812 25.679688 14.816406 25.746094 C 14.371094 25.8125 10.316406 18.449219 9.917969 18.242188 C 9.519531 18.035156 1.167969 18.996094 0.964844 18.597656 C 0.765625 18.195312 6.515625 12.0625 6.589844 11.621094 C 6.660156 11.179688 3.164062 3.53125 3.484375 3.214844 C 3.800781 2.902344 11.414062 6.476562 11.855469 6.410156 C 12.300781 6.339844 18.492188 0.652344 18.890625 0.859375 C 19.289062 1.066406 18.238281 9.40625 18.441406 9.808594 C 18.644531 10.207031 25.964844 14.339844 25.894531 14.785156 C 25.820312 15.226562 17.5625 16.804688 17.242188 17.121094 Z M 17.242188 17.121094 " fill-opacity="1" fill-rule="nonzero"/></g></g></g></g><g mask="url(#1290442a74)"><g transform="matrix(1, 0, 0, 1, 0, 798)"><g clip-path="url(#beec44639c)"><g clip-path="url(#827f099ae9)"><path fill="#ff914d" d="M 15.019531 16.925781 C 14.703125 17.242188 13.035156 25.480469 12.589844 25.550781 C 12.148438 25.617188 8.09375 18.253906 7.695312 18.046875 C 7.296875 17.839844 -1.058594 18.800781 -1.257812 18.402344 C -1.460938 18 4.292969 11.867188 4.363281 11.425781 C 4.4375 10.984375 0.941406 3.335938 1.261719 3.019531 C 1.578125 2.707031 9.191406 6.28125 9.632812 6.214844 C 10.074219 6.144531 16.269531 0.457031 16.667969 0.664062 C 17.066406 0.867188 16.015625 9.210938 16.21875 9.613281 C 16.417969 10.011719 23.742188 14.144531 23.667969 14.585938 C 23.597656 15.03125 15.339844 16.609375 15.019531 16.925781 Z M 15.019531 16.925781 " fill-opacity="1" fill-rule="nonzero"/></g></g></g></g><g clip-path="url(#1500550638)"><g mask="url(#0e086d2804)"><g transform="matrix(1, 0, 0, 1, 264, 800)"><g clip-path="url(#f6778207a2)"><g clip-path="url(#953ae736e5)"><path fill="#ff914d" d="M 17.566406 17.765625 C 17.246094 18.082031 15.578125 26.324219 15.136719 26.390625 C 14.695312 26.457031 10.636719 19.09375 10.238281 18.886719 C 9.84375 18.679688 1.488281 19.640625 1.285156 19.242188 C 1.085938 18.839844 6.835938 12.707031 6.910156 12.265625 C 6.984375 11.824219 3.488281 4.175781 3.804688 3.859375 C 4.125 3.546875 11.734375 7.121094 12.179688 7.054688 C 12.621094 6.984375 18.8125 1.296875 19.210938 1.503906 C 19.609375 1.710938 18.5625 10.050781 18.761719 10.453125 C 18.964844 10.851562 26.289062 14.984375 26.214844 15.425781 C 26.144531 15.871094 17.882812 17.449219 17.566406 17.765625 Z M 17.566406 17.765625 " fill-opacity="1" fill-rule="nonzero"/></g></g></g></g></g></g></g></g><g clip-path="url(#70b370e22b)"><path fill="#cacaca" d="M 618.042969 324 L 294.042969 324 L 294.042969 0 L 618.042969 0 Z M 295.335938 322.710938 L 616.753906 322.710938 L 616.753906 1.289062 L 295.335938 1.289062 Z M 617.398438 295.816406 L 294.6875 295.816406 L 294.6875 297.105469 L 617.398438 297.105469 Z M 617.398438 268.925781 L 294.6875 268.925781 L 294.6875 270.21875 L 617.398438 270.21875 Z M 617.398438 242.03125 L 294.6875 242.03125 L 294.6875 243.324219 L 617.398438 243.324219 Z M 617.398438 215.136719 L 294.6875 215.136719 L 294.6875 216.429688 L 617.398438 216.429688 Z M 617.398438 188.25 L 294.6875 188.25 L 294.6875 189.539062 L 617.398438 189.539062 Z M 617.398438 161.355469 L 294.6875 161.355469 L 294.6875 162.644531 L 617.398438 162.644531 Z M 617.398438 134.460938 L 294.6875 134.460938 L 294.6875 135.75 L 617.398438 135.75 Z M 617.398438 107.570312 L 294.6875 107.570312 L 294.6875 108.863281 L 617.398438 108.863281 Z M 617.398438 80.675781 L 294.6875 80.675781 L 294.6875 81.96875 L 617.398438 81.96875 Z M 617.398438 53.78125 L 294.6875 53.78125 L 294.6875 55.074219 L 617.398438 55.074219 Z M 617.398438 26.894531 L 294.6875 26.894531 L 294.6875 28.183594 L 617.398438 28.183594 Z M 591.148438 0.644531 L 589.859375 0.644531 L 589.859375 323.355469 L 591.148438 323.355469 Z M 564.261719 0.644531 L 562.96875 0.644531 L 562.96875 323.355469 L 564.261719 323.355469 Z M 537.367188 0.644531 L 536.074219 0.644531 L 536.074219 323.355469 L 537.367188 323.355469 Z M 510.472656 0.644531 L 509.179688 0.644531 L 509.179688 323.355469 L 510.472656 323.355469 Z M 483.582031 0.644531 L 482.292969 0.644531 L 482.292969 323.355469 L 483.582031 323.355469 Z M 456.6875 0.644531 L 455.398438 0.644531 L 455.398438 323.355469 L 456.6875 323.355469 Z M 429.792969 0.644531 L 428.503906 0.644531 L 428.503906 323.355469 L 429.792969 323.355469 Z M 402.90625 0.644531 L 401.617188 0.644531 L 401.617188 323.355469 L 402.90625 323.355469 Z M 376.011719 0.644531 L 374.722656 0.644531 L 374.722656 323.355469 L 376.011719 323.355469 Z M 349.117188 0.644531 L 347.824219 0.644531 L 347.824219 323.355469 L 349.117188 323.355469 Z M 322.230469 0.644531 L 320.9375 0.644531 L 320.9375 323.355469 L 322.230469 323.355469 Z M 322.230469 0.644531 " fill-opacity="1" fill-rule="nonzero"/></g><g clip-path="url(#0b751fec48)"><path fill="#cacaca" d="M 912.085938 324 L 588.085938 324 L 588.085938 0 L 912.085938 0 Z M 589.378906 322.710938 L 910.796875 322.710938 L 910.796875 1.289062 L 589.378906 1.289062 Z M 911.441406 295.816406 L 588.730469 295.816406 L 588.730469 297.105469 L 911.441406 297.105469 Z M 911.441406 268.925781 L 588.730469 268.925781 L 588.730469 270.21875 L 911.441406 270.21875 Z M 911.441406 242.03125 L 588.730469 242.03125 L 588.730469 243.324219 L 911.441406 243.324219 Z M 911.441406 215.136719 L 588.730469 215.136719 L 588.730469 216.429688 L 911.441406 216.429688 Z M 911.441406 188.25 L 588.730469 188.25 L 588.730469 189.539062 L 911.441406 189.539062 Z M 911.441406 161.355469 L 588.730469 161.355469 L 588.730469 162.644531 L 911.441406 162.644531 Z M 911.441406 134.460938 L 588.730469 134.460938 L 588.730469 135.75 L 911.441406 135.75 Z M 911.441406 107.570312 L 588.730469 107.570312 L 588.730469 108.863281 L 911.441406 108.863281 Z M 911.441406 80.675781 L 588.730469 80.675781 L 588.730469 81.96875 L 911.441406 81.96875 Z M 911.441406 53.78125 L 588.730469 53.78125 L 588.730469 55.074219 L 911.441406 55.074219 Z M 911.441406 26.894531 L 588.730469 26.894531 L 588.730469 28.183594 L 911.441406 28.183594 Z M 885.191406 0.644531 L 883.902344 0.644531 L 883.902344 323.355469 L 885.191406 323.355469 Z M 858.304688 0.644531 L 857.011719 0.644531 L 857.011719 323.355469 L 858.304688 323.355469 Z M 831.410156 0.644531 L 830.117188 0.644531 L 830.117188 323.355469 L 831.410156 323.355469 Z M 804.515625 0.644531 L 803.222656 0.644531 L 803.222656 323.355469 L 804.515625 323.355469 Z M 777.625 0.644531 L 776.335938 0.644531 L 776.335938 323.355469 L 777.625 323.355469 Z M 750.730469 0.644531 L 749.441406 0.644531 L 749.441406 323.355469 L 750.730469 323.355469 Z M 723.835938 0.644531 L 722.546875 0.644531 L 722.546875 323.355469 L 723.835938 323.355469 Z M 696.949219 0.644531 L 695.660156 0.644531 L 695.660156 323.355469 L 696.949219 323.355469 Z M 670.054688 0.644531 L 668.765625 0.644531 L 668.765625 323.355469 L 670.054688 323.355469 Z M 643.160156 0.644531 L 641.871094 0.644531 L 641.871094 323.355469 L 643.160156 323.355469 Z M 616.273438 0.644531 L 614.980469 0.644531 L 614.980469 323.355469 L 616.273438 323.355469 Z M 616.273438 0.644531 " fill-opacity="1" fill-rule="nonzero"/></g><g clip-path="url(#c2245c1a42)"><path fill="#cacaca" d="M 1206.128906 324 L 882.128906 324 L 882.128906 0 L 1206.128906 0 Z M 883.421875 322.710938 L 1204.839844 322.710938 L 1204.839844 1.289062 L 883.421875 1.289062 Z M 1205.484375 295.816406 L 882.777344 295.816406 L 882.777344 297.105469 L 1205.484375 297.105469 Z M 1205.484375 268.925781 L 882.777344 268.925781 L 882.777344 270.21875 L 1205.484375 270.21875 Z M 1205.484375 242.03125 L 882.777344 242.03125 L 882.777344 243.324219 L 1205.484375 243.324219 Z M 1205.484375 215.136719 L 882.777344 215.136719 L 882.777344 216.429688 L 1205.484375 216.429688 Z M 1205.484375 188.25 L 882.777344 188.25 L 882.777344 189.539062 L 1205.484375 189.539062 Z M 1205.484375 161.355469 L 882.777344 161.355469 L 882.777344 162.644531 L 1205.484375 162.644531 Z M 1205.484375 134.460938 L 882.777344 134.460938 L 882.777344 135.75 L 1205.484375 135.75 Z M 1205.484375 107.570312 L 882.777344 107.570312 L 882.777344 108.863281 L 1205.484375 108.863281 Z M 1205.484375 80.675781 L 882.777344 80.675781 L 882.777344 81.96875 L 1205.484375 81.96875 Z M 1205.484375 53.78125 L 882.777344 53.78125 L 882.777344 55.074219 L 1205.484375 55.074219 Z M 1205.484375 26.894531 L 882.777344 26.894531 L 882.777344 28.183594 L 1205.484375 28.183594 Z M 1179.234375 0.644531 L 1177.945312 0.644531 L 1177.945312 323.355469 L 1179.234375 323.355469 Z M 1152.347656 0.644531 L 1151.058594 0.644531 L 1151.058594 323.355469 L 1152.347656 323.355469 Z M 1125.453125 0.644531 L 1124.164062 0.644531 L 1124.164062 323.355469 L 1125.453125 323.355469 Z M 1098.558594 0.644531 L 1097.269531 0.644531 L 1097.269531 323.355469 L 1098.558594 323.355469 Z M 1071.671875 0.644531 L 1070.378906 0.644531 L 1070.378906 323.355469 L 1071.671875 323.355469 Z M 1044.777344 0.644531 L 1043.484375 0.644531 L 1043.484375 323.355469 L 1044.777344 323.355469 Z M 1017.882812 0.644531 L 1016.589844 0.644531 L 1016.589844 323.355469 L 1017.882812 323.355469 Z M 990.992188 0.644531 L 989.703125 0.644531 L 989.703125 323.355469 L 990.992188 323.355469 Z M 964.097656 0.644531 L 962.808594 0.644531 L 962.808594 323.355469 L 964.097656 323.355469 Z M 937.203125 0.644531 L 935.914062 0.644531 L 935.914062 323.355469 L 937.203125 323.355469 Z M 910.316406 0.644531 L 909.023438 0.644531 L 909.023438 323.355469 L 910.316406 323.355469 Z M 910.316406 0.644531 " fill-opacity="1" fill-rule="nonzero"/></g><g clip-path="url(#8b1e88fab4)"><path fill="#cacaca" d="M 1500.128906 324 L 1176.128906 324 L 1176.128906 0 L 1500.128906 0 Z M 1177.421875 322.710938 L 1498.839844 322.710938 L 1498.839844 1.289062 L 1177.421875 1.289062 Z M 1499.484375 295.816406 L 1176.777344 295.816406 L 1176.777344 297.105469 L 1499.484375 297.105469 Z M 1499.484375 268.925781 L 1176.777344 268.925781 L 1176.777344 270.21875 L 1499.484375 270.21875 Z M 1499.484375 242.03125 L 1176.777344 242.03125 L 1176.777344 243.324219 L 1499.484375 243.324219 Z M 1499.484375 215.136719 L 1176.777344 215.136719 L 1176.777344 216.429688 L 1499.484375 216.429688 Z M 1499.484375 188.25 L 1176.777344 188.25 L 1176.777344 189.539062 L 1499.484375 189.539062 Z M 1499.484375 161.355469 L 1176.777344 161.355469 L 1176.777344 162.644531 L 1499.484375 162.644531 Z M 1499.484375 134.460938 L 1176.777344 134.460938 L 1176.777344 135.75 L 1499.484375 135.75 Z M 1499.484375 107.570312 L 1176.777344 107.570312 L 1176.777344 108.863281 L 1499.484375 108.863281 Z M 1499.484375 80.675781 L 1176.777344 80.675781 L 1176.777344 81.96875 L 1499.484375 81.96875 Z M 1499.484375 53.78125 L 1176.777344 53.78125 L 1176.777344 55.074219 L 1499.484375 55.074219 Z M 1499.484375 26.894531 L 1176.777344 26.894531 L 1176.777344 28.183594 L 1499.484375 28.183594 Z M 1473.234375 0.644531 L 1471.945312 0.644531 L 1471.945312 323.355469 L 1473.234375 323.355469 Z M 1446.347656 0.644531 L 1445.058594 0.644531 L 1445.058594 323.355469 L 1446.347656 323.355469 Z M 1419.453125 0.644531 L 1418.164062 0.644531 L 1418.164062 323.355469 L 1419.453125 323.355469 Z M 1392.558594 0.644531 L 1391.265625 0.644531 L 1391.265625 323.355469 L 1392.558594 323.355469 Z M 1365.671875 0.644531 L 1364.378906 0.644531 L 1364.378906 323.355469 L 1365.671875 323.355469 Z M 1338.777344 0.644531 L 1337.484375 0.644531 L 1337.484375 323.355469 L 1338.777344 323.355469 Z M 1311.882812 0.644531 L 1310.589844 0.644531 L 1310.589844 323.355469 L 1311.882812 323.355469 Z M 1284.992188 0.644531 L 1283.703125 0.644531 L 1283.703125 323.355469 L 1284.992188 323.355469 Z M 1258.097656 0.644531 L 1256.808594 0.644531 L 1256.808594 323.355469 L 1258.097656 323.355469 Z M 1231.203125 0.644531 L 1229.914062 0.644531 L 1229.914062 323.355469 L 1231.203125 323.355469 Z M 1204.316406 0.644531 L 1203.023438 0.644531 L 1203.023438 323.355469 L 1204.316406 323.355469 Z M 1204.316406 0.644531 " fill-opacity="1" fill-rule="nonzero"/></g><g clip-path="url(#b89884e89c)"><path fill="#cacaca" d="M 618.042969 640.191406 L 294.042969 640.191406 L 294.042969 316.191406 L 618.042969 316.191406 Z M 295.335938 638.898438 L 616.753906 638.898438 L 616.753906 317.480469 L 295.335938 317.480469 Z M 617.398438 612.003906 L 294.6875 612.003906 L 294.6875 613.296875 L 617.398438 613.296875 Z M 617.398438 585.117188 L 294.6875 585.117188 L 294.6875 586.410156 L 617.398438 586.410156 Z M 617.398438 558.222656 L 294.6875 558.222656 L 294.6875 559.511719 L 617.398438 559.511719 Z M 617.398438 531.328125 L 294.6875 531.328125 L 294.6875 532.617188 L 617.398438 532.617188 Z M 617.398438 504.441406 L 294.6875 504.441406 L 294.6875 505.730469 L 617.398438 505.730469 Z M 617.398438 477.546875 L 294.6875 477.546875 L 294.6875 478.835938 L 617.398438 478.835938 Z M 617.398438 450.652344 L 294.6875 450.652344 L 294.6875 451.941406 L 617.398438 451.941406 Z M 617.398438 423.761719 L 294.6875 423.761719 L 294.6875 425.054688 L 617.398438 425.054688 Z M 617.398438 396.867188 L 294.6875 396.867188 L 294.6875 398.160156 L 617.398438 398.160156 Z M 617.398438 369.972656 L 294.6875 369.972656 L 294.6875 371.265625 L 617.398438 371.265625 Z M 617.398438 343.085938 L 294.6875 343.085938 L 294.6875 344.375 L 617.398438 344.375 Z M 591.148438 316.835938 L 589.859375 316.835938 L 589.859375 639.546875 L 591.148438 639.546875 Z M 564.261719 316.835938 L 562.96875 316.835938 L 562.96875 639.546875 L 564.261719 639.546875 Z M 537.367188 316.835938 L 536.074219 316.835938 L 536.074219 639.546875 L 537.367188 639.546875 Z M 510.472656 316.835938 L 509.179688 316.835938 L 509.179688 639.546875 L 510.472656 639.546875 Z M 483.582031 316.835938 L 482.292969 316.835938 L 482.292969 639.546875 L 483.582031 639.546875 Z M 456.6875 316.835938 L 455.398438 316.835938 L 455.398438 639.546875 L 456.6875 639.546875 Z M 429.792969 316.835938 L 428.503906 316.835938 L 428.503906 639.546875 L 429.792969 639.546875 Z M 402.90625 316.835938 L 401.617188 316.835938 L 401.617188 639.546875 L 402.90625 639.546875 Z M 376.011719 316.835938 L 374.722656 316.835938 L 374.722656 639.546875 L 376.011719 639.546875 Z M 349.117188 316.835938 L 347.824219 316.835938 L 347.824219 639.546875 L 349.117188 639.546875 Z M 322.230469 316.835938 L 320.9375 316.835938 L 320.9375 639.546875 L 322.230469 639.546875 Z M 322.230469 316.835938 " fill-opacity="1" fill-rule="nonzero"/></g><g clip-path="url(#5b9c5119c6)"><path fill="#cacaca" d="M 912.085938 640.191406 L 588.085938 640.191406 L 588.085938 316.191406 L 912.085938 316.191406 Z M 589.378906 638.898438 L 910.796875 638.898438 L 910.796875 317.480469 L 589.378906 317.480469 Z M 911.441406 612.003906 L 588.730469 612.003906 L 588.730469 613.296875 L 911.441406 613.296875 Z M 911.441406 585.117188 L 588.730469 585.117188 L 588.730469 586.410156 L 911.441406 586.410156 Z M 911.441406 558.222656 L 588.730469 558.222656 L 588.730469 559.511719 L 911.441406 559.511719 Z M 911.441406 531.328125 L 588.730469 531.328125 L 588.730469 532.617188 L 911.441406 532.617188 Z M 911.441406 504.441406 L 588.730469 504.441406 L 588.730469 505.730469 L 911.441406 505.730469 Z M 911.441406 477.546875 L 588.730469 477.546875 L 588.730469 478.835938 L 911.441406 478.835938 Z M 911.441406 450.652344 L 588.730469 450.652344 L 588.730469 451.941406 L 911.441406 451.941406 Z M 911.441406 423.761719 L 588.730469 423.761719 L 588.730469 425.054688 L 911.441406 425.054688 Z M 911.441406 396.867188 L 588.730469 396.867188 L 588.730469 398.160156 L 911.441406 398.160156 Z M 911.441406 369.972656 L 588.730469 369.972656 L 588.730469 371.265625 L 911.441406 371.265625 Z M 911.441406 343.085938 L 588.730469 343.085938 L 588.730469 344.375 L 911.441406 344.375 Z M 885.191406 316.835938 L 883.902344 316.835938 L 883.902344 639.546875 L 885.191406 639.546875 Z M 858.304688 316.835938 L 857.011719 316.835938 L 857.011719 639.546875 L 858.304688 639.546875 Z M 831.410156 316.835938 L 830.117188 316.835938 L 830.117188 639.546875 L 831.410156 639.546875 Z M 804.515625 316.835938 L 803.222656 316.835938 L 803.222656 639.546875 L 804.515625 639.546875 Z M 777.625 316.835938 L 776.335938 316.835938 L 776.335938 639.546875 L 777.625 639.546875 Z M 750.730469 316.835938 L 749.441406 316.835938 L 749.441406 639.546875 L 750.730469 639.546875 Z M 723.835938 316.835938 L 722.546875 316.835938 L 722.546875 639.546875 L 723.835938 639.546875 Z M 696.949219 316.835938 L 695.660156 316.835938 L 695.660156 639.546875 L 696.949219 639.546875 Z M 670.054688 316.835938 L 668.765625 316.835938 L 668.765625 639.546875 L 670.054688 639.546875 Z M 643.160156 316.835938 L 641.871094 316.835938 L 641.871094 639.546875 L 643.160156 639.546875 Z M 616.273438 316.835938 L 614.980469 316.835938 L 614.980469 639.546875 L 616.273438 639.546875 Z M 616.273438 316.835938 " fill-opacity="1" fill-rule="nonzero"/></g><g clip-path="url(#0143f2a8e3)"><path fill="#cacaca" d="M 1206.128906 640.191406 L 882.128906 640.191406 L 882.128906 316.191406 L 1206.128906 316.191406 Z M 883.421875 638.898438 L 1204.839844 638.898438 L 1204.839844 317.480469 L 883.421875 317.480469 Z M 1205.484375 612.003906 L 882.777344 612.003906 L 882.777344 613.296875 L 1205.484375 613.296875 Z M 1205.484375 585.117188 L 882.777344 585.117188 L 882.777344 586.410156 L 1205.484375 586.410156 Z M 1205.484375 558.222656 L 882.777344 558.222656 L 882.777344 559.511719 L 1205.484375 559.511719 Z M 1205.484375 531.328125 L 882.777344 531.328125 L 882.777344 532.617188 L 1205.484375 532.617188 Z M 1205.484375 504.441406 L 882.777344 504.441406 L 882.777344 505.730469 L 1205.484375 505.730469 Z M 1205.484375 477.546875 L 882.777344 477.546875 L 882.777344 478.835938 L 1205.484375 478.835938 Z M 1205.484375 450.652344 L 882.777344 450.652344 L 882.777344 451.941406 L 1205.484375 451.941406 Z M 1205.484375 423.761719 L 882.777344 423.761719 L 882.777344 425.054688 L 1205.484375 425.054688 Z M 1205.484375 396.867188 L 882.777344 396.867188 L 882.777344 398.160156 L 1205.484375 398.160156 Z M 1205.484375 369.972656 L 882.777344 369.972656 L 882.777344 371.265625 L 1205.484375 371.265625 Z M 1205.484375 343.085938 L 882.777344 343.085938 L 882.777344 344.375 L 1205.484375 344.375 Z M 1179.234375 316.835938 L 1177.945312 316.835938 L 1177.945312 639.546875 L 1179.234375 639.546875 Z M 1152.347656 316.835938 L 1151.058594 316.835938 L 1151.058594 639.546875 L 1152.347656 639.546875 Z M 1125.453125 316.835938 L 1124.164062 316.835938 L 1124.164062 639.546875 L 1125.453125 639.546875 Z M 1098.558594 316.835938 L 1097.269531 316.835938 L 1097.269531 639.546875 L 1098.558594 639.546875 Z M 1071.671875 316.835938 L 1070.378906 316.835938 L 1070.378906 639.546875 L 1071.671875 639.546875 Z M 1044.777344 316.835938 L 1043.484375 316.835938 L 1043.484375 639.546875 L 1044.777344 639.546875 Z M 1017.882812 316.835938 L 1016.589844 316.835938 L 1016.589844 639.546875 L 1017.882812 639.546875 Z M 990.992188 316.835938 L 989.703125 316.835938 L 989.703125 639.546875 L 990.992188 639.546875 Z M 964.097656 316.835938 L 962.808594 316.835938 L 962.808594 639.546875 L 964.097656 639.546875 Z M 937.203125 316.835938 L 935.914062 316.835938 L 935.914062 639.546875 L 937.203125 639.546875 Z M 910.316406 316.835938 L 909.023438 316.835938 L 909.023438 639.546875 L 910.316406 639.546875 Z M 910.316406 316.835938 " fill-opacity="1" fill-rule="nonzero"/></g><g clip-path="url(#de2371a32f)"><path fill="#cacaca" d="M 1500.128906 640.191406 L 1176.128906 640.191406 L 1176.128906 316.191406 L 1500.128906 316.191406 Z M 1177.421875 638.898438 L 1498.839844 638.898438 L 1498.839844 317.480469 L 1177.421875 317.480469 Z M 1499.484375 612.003906 L 1176.777344 612.003906 L 1176.777344 613.296875 L 1499.484375 613.296875 Z M 1499.484375 585.117188 L 1176.777344 585.117188 L 1176.777344 586.410156 L 1499.484375 586.410156 Z M 1499.484375 558.222656 L 1176.777344 558.222656 L 1176.777344 559.511719 L 1499.484375 559.511719 Z M 1499.484375 531.328125 L 1176.777344 531.328125 L 1176.777344 532.617188 L 1499.484375 532.617188 Z M 1499.484375 504.441406 L 1176.777344 504.441406 L 1176.777344 505.730469 L 1499.484375 505.730469 Z M 1499.484375 477.546875 L 1176.777344 477.546875 L 1176.777344 478.835938 L 1499.484375 478.835938 Z M 1499.484375 450.652344 L 1176.777344 450.652344 L 1176.777344 451.941406 L 1499.484375 451.941406 Z M 1499.484375 423.761719 L 1176.777344 423.761719 L 1176.777344 425.054688 L 1499.484375 425.054688 Z M 1499.484375 396.867188 L 1176.777344 396.867188 L 1176.777344 398.160156 L 1499.484375 398.160156 Z M 1499.484375 369.972656 L 1176.777344 369.972656 L 1176.777344 371.265625 L 1499.484375 371.265625 Z M 1499.484375 343.085938 L 1176.777344 343.085938 L 1176.777344 344.375 L 1499.484375 344.375 Z M 1473.234375 316.835938 L 1471.945312 316.835938 L 1471.945312 639.546875 L 1473.234375 639.546875 Z M 1446.347656 316.835938 L 1445.058594 316.835938 L 1445.058594 639.546875 L 1446.347656 639.546875 Z M 1419.453125 316.835938 L 1418.164062 316.835938 L 1418.164062 639.546875 L 1419.453125 639.546875 Z M 1392.558594 316.835938 L 1391.265625 316.835938 L 1391.265625 639.546875 L 1392.558594 639.546875 Z M 1365.671875 316.835938 L 1364.378906 316.835938 L 1364.378906 639.546875 L 1365.671875 639.546875 Z M 1338.777344 316.835938 L 1337.484375 316.835938 L 1337.484375 639.546875 L 1338.777344 639.546875 Z M 1311.882812 316.835938 L 1310.589844 316.835938 L 1310.589844 639.546875 L 1311.882812 639.546875 Z M 1284.992188 316.835938 L 1283.703125 316.835938 L 1283.703125 639.546875 L 1284.992188 639.546875 Z M 1258.097656 316.835938 L 1256.808594 316.835938 L 1256.808594 639.546875 L 1258.097656 639.546875 Z M 1231.203125 316.835938 L 1229.914062 316.835938 L 1229.914062 639.546875 L 1231.203125 639.546875 Z M 1204.316406 316.835938 L 1203.023438 316.835938 L 1203.023438 639.546875 L 1204.316406 639.546875 Z M 1204.316406 316.835938 " fill-opacity="1" fill-rule="nonzero"/></g><g clip-path="url(#f533c905e0)"><path fill="#cacaca" d="M 618.042969 956.382812 L 294.042969 956.382812 L 294.042969 632.382812 L 618.042969 632.382812 Z M 295.335938 955.089844 L 616.753906 955.089844 L 616.753906 633.671875 L 295.335938 633.671875 Z M 617.398438 928.195312 L 294.6875 928.195312 L 294.6875 929.488281 L 617.398438 929.488281 Z M 617.398438 901.308594 L 294.6875 901.308594 L 294.6875 902.597656 L 617.398438 902.597656 Z M 617.398438 874.414062 L 294.6875 874.414062 L 294.6875 875.703125 L 617.398438 875.703125 Z M 617.398438 847.519531 L 294.6875 847.519531 L 294.6875 848.808594 L 617.398438 848.808594 Z M 617.398438 820.632812 L 294.6875 820.632812 L 294.6875 821.921875 L 617.398438 821.921875 Z M 617.398438 793.738281 L 294.6875 793.738281 L 294.6875 795.027344 L 617.398438 795.027344 Z M 617.398438 766.84375 L 294.6875 766.84375 L 294.6875 768.132812 L 617.398438 768.132812 Z M 617.398438 739.953125 L 294.6875 739.953125 L 294.6875 741.246094 L 617.398438 741.246094 Z M 617.398438 713.058594 L 294.6875 713.058594 L 294.6875 714.351562 L 617.398438 714.351562 Z M 617.398438 686.164062 L 294.6875 686.164062 L 294.6875 687.457031 L 617.398438 687.457031 Z M 617.398438 659.277344 L 294.6875 659.277344 L 294.6875 660.566406 L 617.398438 660.566406 Z M 591.148438 633.027344 L 589.859375 633.027344 L 589.859375 955.738281 L 591.148438 955.738281 Z M 564.261719 633.027344 L 562.96875 633.027344 L 562.96875 955.738281 L 564.261719 955.738281 Z M 537.367188 633.027344 L 536.074219 633.027344 L 536.074219 955.738281 L 537.367188 955.738281 Z M 510.472656 633.027344 L 509.179688 633.027344 L 509.179688 955.738281 L 510.472656 955.738281 Z M 483.582031 633.027344 L 482.292969 633.027344 L 482.292969 955.738281 L 483.582031 955.738281 Z M 456.6875 633.027344 L 455.398438 633.027344 L 455.398438 955.738281 L 456.6875 955.738281 Z M 429.792969 633.027344 L 428.503906 633.027344 L 428.503906 955.738281 L 429.792969 955.738281 Z M 402.90625 633.027344 L 401.617188 633.027344 L 401.617188 955.738281 L 402.90625 955.738281 Z M 376.011719 633.027344 L 374.722656 633.027344 L 374.722656 955.738281 L 376.011719 955.738281 Z M 349.117188 633.027344 L 347.824219 633.027344 L 347.824219 955.738281 L 349.117188 955.738281 Z M 322.230469 633.027344 L 320.9375 633.027344 L 320.9375 955.738281 L 322.230469 955.738281 Z M 322.230469 633.027344 " fill-opacity="1" fill-rule="nonzero"/></g><g clip-path="url(#483ba8715f)"><path fill="#cacaca" d="M 912.085938 956.382812 L 588.085938 956.382812 L 588.085938 632.382812 L 912.085938 632.382812 Z M 589.378906 955.089844 L 910.796875 955.089844 L 910.796875 633.671875 L 589.378906 633.671875 Z M 911.441406 928.195312 L 588.730469 928.195312 L 588.730469 929.488281 L 911.441406 929.488281 Z M 911.441406 901.308594 L 588.730469 901.308594 L 588.730469 902.597656 L 911.441406 902.597656 Z M 911.441406 874.414062 L 588.730469 874.414062 L 588.730469 875.703125 L 911.441406 875.703125 Z M 911.441406 847.519531 L 588.730469 847.519531 L 588.730469 848.808594 L 911.441406 848.808594 Z M 911.441406 820.632812 L 588.730469 820.632812 L 588.730469 821.921875 L 911.441406 821.921875 Z M 911.441406 793.738281 L 588.730469 793.738281 L 588.730469 795.027344 L 911.441406 795.027344 Z M 911.441406 766.84375 L 588.730469 766.84375 L 588.730469 768.132812 L 911.441406 768.132812 Z M 911.441406 739.953125 L 588.730469 739.953125 L 588.730469 741.246094 L 911.441406 741.246094 Z M 911.441406 713.058594 L 588.730469 713.058594 L 588.730469 714.351562 L 911.441406 714.351562 Z M 911.441406 686.164062 L 588.730469 686.164062 L 588.730469 687.457031 L 911.441406 687.457031 Z M 911.441406 659.277344 L 588.730469 659.277344 L 588.730469 660.566406 L 911.441406 660.566406 Z M 885.191406 633.027344 L 883.902344 633.027344 L 883.902344 955.738281 L 885.191406 955.738281 Z M 858.304688 633.027344 L 857.011719 633.027344 L 857.011719 955.738281 L 858.304688 955.738281 Z M 831.410156 633.027344 L 830.117188 633.027344 L 830.117188 955.738281 L 831.410156 955.738281 Z M 804.515625 633.027344 L 803.222656 633.027344 L 803.222656 955.738281 L 804.515625 955.738281 Z M 777.625 633.027344 L 776.335938 633.027344 L 776.335938 955.738281 L 777.625 955.738281 Z M 750.730469 633.027344 L 749.441406 633.027344 L 749.441406 955.738281 L 750.730469 955.738281 Z M 723.835938 633.027344 L 722.546875 633.027344 L 722.546875 955.738281 L 723.835938 955.738281 Z M 696.949219 633.027344 L 695.660156 633.027344 L 695.660156 955.738281 L 696.949219 955.738281 Z M 670.054688 633.027344 L 668.765625 633.027344 L 668.765625 955.738281 L 670.054688 955.738281 Z M 643.160156 633.027344 L 641.871094 633.027344 L 641.871094 955.738281 L 643.160156 955.738281 Z M 616.273438 633.027344 L 614.980469 633.027344 L 614.980469 955.738281 L 616.273438 955.738281 Z M 616.273438 633.027344 " fill-opacity="1" fill-rule="nonzero"/></g><g clip-path="url(#41e4cf68fd)"><path fill="#cacaca" d="M 1206.128906 956.382812 L 882.128906 956.382812 L 882.128906 632.382812 L 1206.128906 632.382812 Z M 883.421875 955.089844 L 1204.839844 955.089844 L 1204.839844 633.671875 L 883.421875 633.671875 Z M 1205.484375 928.195312 L 882.777344 928.195312 L 882.777344 929.488281 L 1205.484375 929.488281 Z M 1205.484375 901.308594 L 882.777344 901.308594 L 882.777344 902.597656 L 1205.484375 902.597656 Z M 1205.484375 874.414062 L 882.777344 874.414062 L 882.777344 875.703125 L 1205.484375 875.703125 Z M 1205.484375 847.519531 L 882.777344 847.519531 L 882.777344 848.808594 L 1205.484375 848.808594 Z M 1205.484375 820.632812 L 882.777344 820.632812 L 882.777344 821.921875 L 1205.484375 821.921875 Z M 1205.484375 793.738281 L 882.777344 793.738281 L 882.777344 795.027344 L 1205.484375 795.027344 Z M 1205.484375 766.84375 L 882.777344 766.84375 L 882.777344 768.132812 L 1205.484375 768.132812 Z M 1205.484375 739.953125 L 882.777344 739.953125 L 882.777344 741.246094 L 1205.484375 741.246094 Z M 1205.484375 713.058594 L 882.777344 713.058594 L 882.777344 714.351562 L 1205.484375 714.351562 Z M 1205.484375 686.164062 L 882.777344 686.164062 L 882.777344 687.457031 L 1205.484375 687.457031 Z M 1205.484375 659.277344 L 882.777344 659.277344 L 882.777344 660.566406 L 1205.484375 660.566406 Z M 1179.234375 633.027344 L 1177.945312 633.027344 L 1177.945312 955.738281 L 1179.234375 955.738281 Z M 1152.347656 633.027344 L 1151.058594 633.027344 L 1151.058594 955.738281 L 1152.347656 955.738281 Z M 1125.453125 633.027344 L 1124.164062 633.027344 L 1124.164062 955.738281 L 1125.453125 955.738281 Z M 1098.558594 633.027344 L 1097.269531 633.027344 L 1097.269531 955.738281 L 1098.558594 955.738281 Z M 1071.671875 633.027344 L 1070.378906 633.027344 L 1070.378906 955.738281 L 1071.671875 955.738281 Z M 1044.777344 633.027344 L 1043.484375 633.027344 L 1043.484375 955.738281 L 1044.777344 955.738281 Z M 1017.882812 633.027344 L 1016.589844 633.027344 L 1016.589844 955.738281 L 1017.882812 955.738281 Z M 990.992188 633.027344 L 989.703125 633.027344 L 989.703125 955.738281 L 990.992188 955.738281 Z M 964.097656 633.027344 L 962.808594 633.027344 L 962.808594 955.738281 L 964.097656 955.738281 Z M 937.203125 633.027344 L 935.914062 633.027344 L 935.914062 955.738281 L 937.203125 955.738281 Z M 910.316406 633.027344 L 909.023438 633.027344 L 909.023438 955.738281 L 910.316406 955.738281 Z M 910.316406 633.027344 " fill-opacity="1" fill-rule="nonzero"/></g><g clip-path="url(#826384b858)"><path fill="#cacaca" d="M 1500.128906 956.382812 L 1176.128906 956.382812 L 1176.128906 632.382812 L 1500.128906 632.382812 Z M 1177.421875 955.089844 L 1498.839844 955.089844 L 1498.839844 633.671875 L 1177.421875 633.671875 Z M 1499.484375 928.195312 L 1176.777344 928.195312 L 1176.777344 929.488281 L 1499.484375 929.488281 Z M 1499.484375 901.308594 L 1176.777344 901.308594 L 1176.777344 902.597656 L 1499.484375 902.597656 Z M 1499.484375 874.414062 L 1176.777344 874.414062 L 1176.777344 875.703125 L 1499.484375 875.703125 Z M 1499.484375 847.519531 L 1176.777344 847.519531 L 1176.777344 848.808594 L 1499.484375 848.808594 Z M 1499.484375 820.632812 L 1176.777344 820.632812 L 1176.777344 821.921875 L 1499.484375 821.921875 Z M 1499.484375 793.738281 L 1176.777344 793.738281 L 1176.777344 795.027344 L 1499.484375 795.027344 Z M 1499.484375 766.84375 L 1176.777344 766.84375 L 1176.777344 768.132812 L 1499.484375 768.132812 Z M 1499.484375 739.953125 L 1176.777344 739.953125 L 1176.777344 741.246094 L 1499.484375 741.246094 Z M 1499.484375 713.058594 L 1176.777344 713.058594 L 1176.777344 714.351562 L 1499.484375 714.351562 Z M 1499.484375 686.164062 L 1176.777344 686.164062 L 1176.777344 687.457031 L 1499.484375 687.457031 Z M 1499.484375 659.277344 L 1176.777344 659.277344 L 1176.777344 660.566406 L 1499.484375 660.566406 Z M 1473.234375 633.027344 L 1471.945312 633.027344 L 1471.945312 955.738281 L 1473.234375 955.738281 Z M 1446.347656 633.027344 L 1445.058594 633.027344 L 1445.058594 955.738281 L 1446.347656 955.738281 Z M 1419.453125 633.027344 L 1418.164062 633.027344 L 1418.164062 955.738281 L 1419.453125 955.738281 Z M 1392.558594 633.027344 L 1391.265625 633.027344 L 1391.265625 955.738281 L 1392.558594 955.738281 Z M 1365.671875 633.027344 L 1364.378906 633.027344 L 1364.378906 955.738281 L 1365.671875 955.738281 Z M 1338.777344 633.027344 L 1337.484375 633.027344 L 1337.484375 955.738281 L 1338.777344 955.738281 Z M 1311.882812 633.027344 L 1310.589844 633.027344 L 1310.589844 955.738281 L 1311.882812 955.738281 Z M 1284.992188 633.027344 L 1283.703125 633.027344 L 1283.703125 955.738281 L 1284.992188 955.738281 Z M 1258.097656 633.027344 L 1256.808594 633.027344 L 1256.808594 955.738281 L 1258.097656 955.738281 Z M 1231.203125 633.027344 L 1229.914062 633.027344 L 1229.914062 955.738281 L 1231.203125 955.738281 Z M 1204.316406 633.027344 L 1203.023438 633.027344 L 1203.023438 955.738281 L 1204.316406 955.738281 Z M 1204.316406 633.027344 " fill-opacity="1" fill-rule="nonzero"/></g></svg>